<svg viewBox="0 0 1600 63.9941" xmlns="http://www.w3.org/2000/svg" xmlns:xlink="http://www.w3.org/1999/xlink" width="1600.000000" height="63.994141" fill="none" customFrame="#000000">
	<defs>
		<clipPath id="clipPath_0">
			<rect width="280.244141" height="31.992188" x="15.996094" y="15.683594" fill="rgb(255,255,255)" />
		</clipPath>
		<clipPath id="clipPath_1">
			<rect width="106.708984" height="31.992188" x="15.996094" y="15.683594" fill="rgb(255,255,255)" />
		</clipPath>
		<clipPath id="clipPath_2">
			<rect width="31.992188" height="31.992188" x="15.996094" y="15.683594" fill="rgb(255,255,255)" />
		</clipPath>
		<clipPath id="clipPath_3">
			<rect width="66.718750" height="22.500000" x="55.986328" y="20.429688" fill="rgb(255,255,255)" />
		</clipPath>
		<clipPath id="clipPath_4">
			<rect width="141.542969" height="19.492188" x="154.697266" y="21.933594" fill="rgb(255,255,255)" />
		</clipPath>
		<clipPath id="clipPath_5">
			<rect width="36.425781" height="19.492188" x="171.318359" y="21.933594" fill="rgb(255,255,255)" />
		</clipPath>
		<clipPath id="clipPath_6">
			<rect width="4.687500" height="19.492188" x="215.742188" y="21.933594" fill="rgb(255,255,255)" />
		</clipPath>
		<clipPath id="clipPath_7">
			<rect width="67.812500" height="19.492188" x="228.427734" y="21.933594" fill="rgb(255,255,255)" />
		</clipPath>
		<clipPath id="clipPath_8">
			<rect width="671.992188" height="36.738281" x="403.916016" y="13.310547" fill="rgb(255,255,255)" />
		</clipPath>
		<clipPath id="clipPath_9">
			<rect width="608.007812" height="36.738281" x="435.908203" y="13.310547" fill="rgb(255,255,255)" />
		</clipPath>
		<clipPath id="clipPath_10">
			<rect width="27.988281" height="36.738281" x="435.908203" y="13.310547" fill="rgb(255,255,255)" />
		</clipPath>
		<clipPath id="clipPath_11">
			<rect width="15.996094" height="15.996094" x="447.900391" y="23.681641" fill="rgb(255,255,255)" />
		</clipPath>
		<clipPath id="clipPath_12">
			<rect width="608.007812" height="36.738281" x="435.908203" y="13.310547" fill="rgb(255,255,255)" />
		</clipPath>
		<clipPath id="clipPath_13">
			<rect width="33.281250" height="36.738281" x="1010.634766" y="13.310547" fill="rgb(255,255,255)" />
		</clipPath>
		<clipPath id="clipPath_14">
			<rect width="25.283203" height="20.234375" x="1010.634766" y="21.562500" fill="rgb(255,255,255)" />
		</clipPath>
		<clipPath id="clipPath_15">
			<rect width="400.410156" height="39.980469" x="1183.583984" y="11.689453" fill="rgb(255,255,255)" />
		</clipPath>
		<clipPath id="clipPath_16">
			<rect width="105.166016" height="31.484375" x="1183.583984" y="15.937500" fill="rgb(255,255,255)" />
		</clipPath>
		<clipPath id="clipPath_17">
			<rect width="13.994141" height="13.994141" x="1195.576172" y="24.677734" fill="rgb(255,255,255)" />
		</clipPath>
		<clipPath id="clipPath_18">
			<rect width="59.189453" height="19.492188" x="1217.568359" y="21.933594" fill="rgb(255,255,255)" />
		</clipPath>
		<clipPath id="clipPath_19">
			<rect width="0.996094" height="23.994141" x="1312.744141" y="19.677734" fill="rgb(255,255,255)" />
		</clipPath>
		<clipPath id="clipPath_20">
			<rect width="33.994141" height="33.994141" x="1329.736328" y="14.677734" fill="rgb(255,255,255)" />
		</clipPath>
		<clipPath id="clipPath_21">
			<rect width="17.998047" height="17.998047" x="1337.734375" y="22.675781" fill="rgb(255,255,255)" />
		</clipPath>
		<g id="pixso_custom_effect_0">
			<effect x="0.000000" y="0.000000" visibility="visible" fill="rgb(255,255,255)" fill-opacity="1" effectType="dropShadow" showShadowBehind="1" stdDeviation="0" radius="0" />
			<effect x="0.000000" y="0.000000" visibility="visible" fill="rgb(255,255,255)" fill-opacity="1" effectType="dropShadow" showShadowBehind="1" stdDeviation="0" radius="2" />
			<effect x="0.000000" y="0.000000" visibility="visible" fill="rgb(0,0,0)" fill-opacity="0" effectType="dropShadow" showShadowBehind="1" stdDeviation="0" radius="0" />
		</g>
		<filter id="filter_0" width="9.996094" height="9.996094" x="1347.736328" y="20.675781" filterUnits="userSpaceOnUse" customEffect="url(#pixso_custom_effect_0)" color-interpolation-filters="sRGB">
			<feFlood flood-opacity="0" result="BackgroundImageFix" />
			<feColorMatrix result="hardAlpha" in="SourceAlpha" type="matrix" values="0 0 0 0 0 0 0 0 0 0 0 0 0 0 0 0 0 0 127 0 " />
			<feOffset dx="0.000000" dy="0.000000" in="hardAlpha" />
			<feColorMatrix type="matrix" values="0 0 0 0 1 0 0 0 0 1 0 0 0 0 1 0 0 0 1 0 " />
			<feBlend result="effect_dropShadow_1" in2="BackgroundImageFix" mode="normal" />
			<feColorMatrix result="hardAlpha" in="SourceAlpha" type="matrix" values="0 0 0 0 0 0 0 0 0 0 0 0 0 0 0 0 0 0 127 0 " />
			<feOffset dx="-0.000000" dy="-0.000000" in="hardAlpha" />
			<feMorphology radius="2" operator="dilate" />
			<feOffset dx="0.000000" dy="0.000000" />
			<feColorMatrix type="matrix" values="0 0 0 0 1 0 0 0 0 1 0 0 0 0 1 0 0 0 1 0 " />
			<feBlend result="effect_dropShadow_2" in2="effect_dropShadow_1" mode="normal" />
			<feColorMatrix result="hardAlpha" in="SourceAlpha" type="matrix" values="0 0 0 0 0 0 0 0 0 0 0 0 0 0 0 0 0 0 127 0 " />
			<feOffset dx="0.000000" dy="0.000000" in="hardAlpha" />
			<feColorMatrix type="matrix" values="0 0 0 0 0 0 0 0 0 0 0 0 0 0 0 0 0 0 0 0 " />
			<feBlend result="effect_dropShadow_3" in2="effect_dropShadow_2" mode="normal" />
			<feBlend result="shape" in="SourceGraphic" in2="effect_dropShadow_3" mode="normal" />
		</filter>
		<clipPath id="clipPath_22">
			<rect width="5.996094" height="5.996094" x="1349.736328" y="22.675781" rx="2.998047" fill="rgb(255,255,255)" />
		</clipPath>
		<clipPath id="clipPath_23">
			<rect width="33.994141" height="33.994141" x="1379.726562" y="14.677734" fill="rgb(255,255,255)" />
		</clipPath>
		<clipPath id="clipPath_24">
			<rect width="17.998047" height="17.998047" x="1387.724609" y="22.675781" fill="rgb(255,255,255)" />
		</clipPath>
		<clipPath id="clipPath_25">
			<rect width="0.996094" height="23.994141" x="1429.716797" y="19.677734" fill="rgb(255,255,255)" />
		</clipPath>
		<clipPath id="clipPath_26">
			<rect width="137.285156" height="39.980469" x="1446.708984" y="11.689453" fill="rgb(255,255,255)" />
		</clipPath>
		<clipPath id="clipPath_27">
			<rect width="31.992188" height="31.992188" x="1454.707031" y="15.683594" fill="rgb(255,255,255)" />
		</clipPath>
		<clipPath id="clipPath_28">
			<rect width="59.316406" height="27.988281" x="1498.691406" y="17.685547" fill="rgb(255,255,255)" />
		</clipPath>
		<clipPath id="clipPath_29">
			<rect width="59.316406" height="12.998047" x="1498.691406" y="17.685547" fill="rgb(255,255,255)" />
		</clipPath>
		<clipPath id="clipPath_30">
			<rect width="59.316406" height="10.996094" x="1498.691406" y="34.677734" fill="rgb(255,255,255)" />
		</clipPath>
		<clipPath id="clipPath_31">
			<rect width="13.994141" height="13.994141" x="1570.000000" y="24.677734" fill="rgb(255,255,255)" />
		</clipPath>
	</defs>
	<rect id="Container" width="1600.000000" height="63.994141" x="0.000000" y="0.000000" fill="rgb(255,255,255)" />
	<rect id="Container" width="1600.000000" height="63.994141" x="0.000000" y="0.000000" stroke="rgb(238,238,238)" stroke-width="0" />
	<g id="Container" customFrame="url(#clipPath_0)">
		<rect id="Container" width="280.244141" height="31.992188" x="15.996094" y="15.683594" />
		<g id="Container" customFrame="url(#clipPath_1)">
			<rect id="Container" width="106.708984" height="31.992188" x="15.996094" y="15.683594" />
			<g id="Container" customFrame="url(#clipPath_2)">
				<rect id="Container" width="31.992188" height="31.992188" x="15.996094" y="15.683594" fill="rgb(0,0,0)" />
				<path id="LF" d="M29.0287 35.6067L24.3996 35.6067L24.3996 28.2406L25.8752 28.2406L25.8752 34.3929L29.0287 34.3929L29.0287 35.6067ZM30.2544 35.6067L30.2544 28.2406L34.7645 28.2406L34.7645 29.4544L31.7181 29.4544L31.7181 31.2394L34.3837 31.2394L34.3837 32.4532L31.7181 32.4532L31.7181 35.6067L30.2544 35.6067Z" fill="rgb(255,255,255)" fill-rule="nonzero" />
			</g>
			<g id="Span" customFrame="url(#clipPath_3)">
				<rect id="Span" width="66.718750" height="22.500000" x="55.986328" y="20.429688" />
				<path id="LeadFlow" d="M56.9009 36.0036L56.9009 26.7308L58.5807 26.7308L58.5807 34.5954L62.6647 34.5954L62.6647 36.0036L56.9009 36.0036ZM67.129 36.1394C66.4317 36.1394 65.8295 35.9945 65.3224 35.7047C64.8184 35.4119 64.4305 34.9984 64.1588 34.4641C63.8872 33.9268 63.7513 33.2945 63.7513 32.567C63.7513 31.8517 63.8872 31.2238 64.1588 30.6835C64.4335 30.1402 64.8168 29.7176 65.3089 29.4157C65.8009 29.1109 66.3789 28.9585 67.043 28.9585C67.4716 28.9585 67.8761 29.0279 68.2564 29.1667C68.6397 29.3026 68.9778 29.5138 69.2706 29.8006C69.5664 30.0874 69.7988 30.4526 69.9679 30.8963C70.1369 31.337 70.2214 31.8622 70.2214 32.4719L70.2214 32.9745L64.521 32.9745L64.521 31.8698L68.6503 31.8698C68.6473 31.5558 68.5794 31.2766 68.4466 31.0321C68.3137 30.7846 68.1281 30.5899 67.8896 30.4481C67.6542 30.3062 67.3795 30.2353 67.0656 30.2353C66.7306 30.2353 66.4363 30.3168 66.1827 30.4798C65.9292 30.6397 65.7314 30.851 65.5896 31.1136C65.4507 31.3732 65.3798 31.6585 65.3768 31.9694L65.3768 32.9338C65.3768 33.3382 65.4507 33.6854 65.5986 33.9751C65.7465 34.2619 65.9533 34.4822 66.2189 34.6362C66.4846 34.7871 66.7955 34.8626 67.1516 34.8626C67.3901 34.8626 67.6059 34.8294 67.7991 34.763C67.9923 34.6935 68.1598 34.5924 68.3017 34.4596C68.4435 34.3268 68.5507 34.1623 68.6231 33.9661L70.1535 34.1381C70.0569 34.5426 69.8728 34.8958 69.6011 35.1976C69.3325 35.4964 68.9884 35.7289 68.5688 35.8949C68.1492 36.0579 67.6693 36.1394 67.129 36.1394ZM73.6093 36.1439C73.1686 36.1439 72.7716 36.0654 72.4185 35.9085C72.0683 35.7485 71.7906 35.5131 71.5854 35.2021C71.3831 34.8912 71.282 34.5079 71.282 34.0521C71.282 33.6597 71.3545 33.3352 71.4994 33.0787C71.6442 32.8221 71.8419 32.6168 72.0925 32.4629C72.343 32.3089 72.6252 32.1927 72.9392 32.1143C73.2561 32.0328 73.5836 31.9739 73.9217 31.9377C74.3292 31.8954 74.6597 31.8577 74.9132 31.8245C75.1668 31.7883 75.3509 31.7339 75.4656 31.6615C75.5833 31.586 75.6422 31.4698 75.6422 31.3129L75.6422 31.2857C75.6422 30.9446 75.5411 30.6805 75.3388 30.4933C75.1366 30.3062 74.8453 30.2126 74.465 30.2126C74.0635 30.2126 73.7451 30.3002 73.5097 30.4752C73.2772 30.6503 73.1203 30.8571 73.0388 31.0955L71.5084 30.8782C71.6292 30.4556 71.8284 30.1025 72.1061 29.8187C72.3838 29.532 72.7233 29.3176 73.1248 29.1758C73.5263 29.0309 73.97 28.9585 74.4559 28.9585C74.791 28.9585 75.1245 28.9977 75.4566 29.0762C75.7886 29.1547 76.0919 29.2844 76.3666 29.4656C76.6413 29.6436 76.8617 29.8866 77.0277 30.1945C77.1967 30.5024 77.2812 30.8873 77.2812 31.3491L77.2812 36.0036L75.7056 36.0036L75.7056 35.0482L75.6513 35.0482C75.5517 35.2414 75.4113 35.4225 75.2302 35.5915C75.0521 35.7575 74.8272 35.8919 74.5556 35.9945C74.2869 36.0941 73.9715 36.1439 73.6093 36.1439ZM74.0349 34.9395C74.3639 34.9395 74.6491 34.8746 74.8906 34.7449C75.1321 34.612 75.3177 34.437 75.4475 34.2196C75.5803 34.0023 75.6467 33.7654 75.6467 33.5088L75.6467 32.6893C75.5954 32.7315 75.5079 32.7708 75.3841 32.807C75.2634 32.8432 75.1275 32.8749 74.9766 32.9021C74.8257 32.9292 74.6763 32.9534 74.5284 32.9745C74.3805 32.9957 74.2522 33.0138 74.1435 33.0289C73.899 33.0621 73.6802 33.1164 73.487 33.1918C73.2938 33.2673 73.1414 33.373 73.0297 33.5088C72.918 33.6416 72.8622 33.8137 72.8622 34.0249C72.8622 34.3268 72.9724 34.5547 73.1927 34.7086C73.4131 34.8626 73.6938 34.9395 74.0349 34.9395ZM81.5101 36.1258C80.9638 36.1258 80.4748 35.9854 80.0431 35.7047C79.6115 35.424 79.2704 35.0165 79.0199 34.4822C78.7693 33.948 78.6441 33.299 78.6441 32.5353C78.6441 31.7626 78.7708 31.1106 79.0244 30.5794C79.281 30.0451 79.6266 29.6421 80.0612 29.3705C80.4959 29.0958 80.9804 28.9585 81.5146 28.9585C81.9221 28.9585 82.2572 29.0279 82.5198 29.1667C82.7824 29.3026 82.9907 29.4671 83.1446 29.6602C83.2985 29.8504 83.4178 30.03 83.5023 30.199L83.5702 30.199L83.5702 26.7308L85.2138 26.7308L85.2138 36.0036L83.6019 36.0036L83.6019 34.9078L83.5023 34.9078C83.4178 35.0769 83.2955 35.2565 83.1355 35.4466C82.9756 35.6338 82.7643 35.7938 82.5017 35.9266C82.2391 36.0594 81.9085 36.1258 81.5101 36.1258ZM81.9674 34.7811C82.3145 34.7811 82.6103 34.6875 82.8548 34.5004C83.0993 34.3102 83.285 34.0461 83.4117 33.708C83.5385 33.3699 83.6019 32.976 83.6019 32.5263C83.6019 32.0765 83.5385 31.6856 83.4117 31.3536C83.288 31.0216 83.1039 30.7635 82.8594 30.5794C82.6179 30.3952 82.3206 30.3032 81.9674 30.3032C81.6022 30.3032 81.2973 30.3983 81.0528 30.5884C80.8083 30.7786 80.6242 31.0412 80.5004 31.3762C80.3767 31.7113 80.3148 32.0946 80.3148 32.5263C80.3148 32.9609 80.3767 33.3488 80.5004 33.6899C80.6272 34.028 80.8128 34.2951 81.0573 34.4913C81.3048 34.6845 81.6082 34.7811 81.9674 34.7811ZM87.0328 36.0036L87.0328 26.7308L92.9731 26.7308L92.9731 28.1389L88.7125 28.1389L88.7125 30.6563L92.5656 30.6563L92.5656 32.0645L88.7125 32.0645L88.7125 36.0036L87.0328 36.0036ZM96.07 26.7308L96.07 36.0036L94.431 36.0036L94.431 26.7308L96.07 26.7308ZM100.789 36.1394C100.11 36.1394 99.5213 35.99 99.0232 35.6911C98.5252 35.3923 98.1388 34.9743 97.8642 34.437C97.5925 33.8997 97.4566 33.2718 97.4566 32.5534C97.4566 31.835 97.5925 31.2057 97.8642 30.6654C98.1388 30.1251 98.5252 29.7055 99.0232 29.4067C99.5213 29.1079 100.11 28.9585 100.789 28.9585C101.468 28.9585 102.057 29.1079 102.555 29.4067C103.053 29.7055 103.438 30.1251 103.709 30.6654C103.984 31.2057 104.121 31.835 104.121 32.5534C104.121 33.2718 103.984 33.8997 103.709 34.437C103.438 34.9743 103.053 35.3923 102.555 35.6911C102.057 35.99 101.468 36.1394 100.789 36.1394ZM100.798 34.8263C101.166 34.8263 101.474 34.7252 101.722 34.523C101.969 34.3177 102.153 34.0431 102.274 33.699C102.398 33.3548 102.46 32.9715 102.46 32.5489C102.46 32.1233 102.398 31.7385 102.274 31.3944C102.153 31.0472 101.969 30.771 101.722 30.5658C101.474 30.3605 101.166 30.2579 100.798 30.2579C100.421 30.2579 100.107 30.3605 99.8563 30.5658C99.6088 30.771 99.4232 31.0472 99.2994 31.3944C99.1787 31.7385 99.1183 32.1233 99.1183 32.5489C99.1183 32.9715 99.1787 33.3548 99.2994 33.699C99.4232 34.0431 99.6088 34.3177 99.8563 34.523C100.107 34.7252 100.421 34.8263 100.798 34.8263ZM106.749 36.0036L104.784 29.049L106.454 29.049L107.677 33.9389L107.74 33.9389L108.99 29.049L110.642 29.049L111.892 33.9118L111.96 33.9118L113.164 29.049L114.84 29.049L112.87 36.0036L111.163 36.0036L109.859 31.3038L109.764 31.3038L108.46 36.0036L106.749 36.0036Z" fill="rgb(0,0,0)" fill-rule="nonzero" />
			</g>
		</g>
		<g id="Container" customFrame="url(#clipPath_4)">
			<rect id="Container" width="141.542969" height="19.492188" x="154.697266" y="21.933594" stroke="rgb(238,238,238)" stroke-width="0" />
			<g id="Span" customFrame="url(#clipPath_5)">
				<rect id="Span" width="36.425781" height="19.492188" x="171.318359" y="21.933594" />
				<path id="Home" d="M172.292 35.6393L172.292 27.6029L173.265 27.6029L173.265 31.1816L177.55 31.1816L177.55 27.6029L178.523 27.6029L178.523 35.6393L177.55 35.6393L177.55 32.0449L173.265 32.0449L173.265 35.6393L172.292 35.6393ZM182.794 35.7648C182.25 35.7648 181.773 35.6354 181.362 35.3764C180.954 35.1174 180.635 34.7551 180.404 34.2894C180.177 33.8238 180.063 33.2796 180.063 32.657C180.063 32.0292 180.177 31.4811 180.404 31.0129C180.635 30.5446 180.954 30.181 181.362 29.922C181.773 29.663 182.25 29.5335 182.794 29.5335C183.338 29.5335 183.814 29.663 184.222 29.922C184.633 30.181 184.952 30.5446 185.18 31.0129C185.41 31.4811 185.525 32.0292 185.525 32.657C185.525 33.2796 185.41 33.8238 185.18 34.2894C184.952 34.7551 184.633 35.1174 184.222 35.3764C183.814 35.6354 183.338 35.7648 182.794 35.7648ZM182.794 34.933C183.207 34.933 183.548 34.827 183.814 34.6151C184.081 34.4032 184.279 34.1246 184.407 33.7793C184.535 33.434 184.599 33.0599 184.599 32.657C184.599 32.2542 184.535 31.8788 184.407 31.5308C184.279 31.1829 184.081 30.9017 183.814 30.6872C183.548 30.4727 183.207 30.3654 182.794 30.3654C182.381 30.3654 182.041 30.4727 181.774 30.6872C181.507 30.9017 181.31 31.1829 181.181 31.5308C181.053 31.8788 180.989 32.2542 180.989 32.657C180.989 33.0599 181.053 33.434 181.181 33.7793C181.31 34.1246 181.507 34.4032 181.774 34.6151C182.041 34.827 182.381 34.933 182.794 34.933ZM186.939 35.6393L186.939 29.612L187.834 29.612L187.834 30.5538L187.912 30.5538C188.038 30.232 188.24 29.9822 188.52 29.8043C188.8 29.6238 189.136 29.5335 189.529 29.5335C189.926 29.5335 190.257 29.6238 190.521 29.8043C190.788 29.9822 190.996 30.232 191.145 30.5538L191.208 30.5538C191.363 30.2425 191.594 29.9952 191.903 29.8121C192.211 29.6264 192.582 29.5335 193.013 29.5335C193.552 29.5335 193.993 29.7023 194.336 30.0397C194.678 30.3746 194.85 30.8965 194.85 31.6054L194.85 35.6393L193.924 35.6393L193.924 31.6054C193.924 31.1607 193.802 30.8428 193.559 30.6519C193.315 30.4609 193.029 30.3654 192.699 30.3654C192.275 30.3654 191.947 30.4936 191.714 30.75C191.482 31.0037 191.365 31.3255 191.365 31.7153L191.365 35.6393L190.423 35.6393L190.423 31.5112C190.423 31.1685 190.312 30.8925 190.09 30.6833C189.867 30.4714 189.581 30.3654 189.23 30.3654C188.99 30.3654 188.765 30.4295 188.556 30.5577C188.349 30.6859 188.181 30.8638 188.053 31.0914C187.928 31.3163 187.865 31.5766 187.865 31.8722L187.865 35.6393L186.939 35.6393ZM199.07 35.7648C198.489 35.7648 197.988 35.6367 197.567 35.3803C197.148 35.1213 196.825 34.7603 196.598 34.2973C196.373 33.8316 196.26 33.2901 196.26 32.6727C196.26 32.0554 196.373 31.5112 196.598 31.0403C196.825 30.5668 197.142 30.198 197.547 29.9338C197.955 29.6669 198.432 29.5335 198.976 29.5335C199.29 29.5335 199.6 29.5858 199.906 29.6905C200.212 29.7951 200.49 29.9652 200.742 30.2006C200.993 30.4334 201.193 30.7421 201.342 31.1267C201.491 31.5112 201.566 31.9847 201.566 32.5472L201.566 32.9396L196.92 32.9396L196.92 32.1391L200.624 32.1391C200.624 31.799 200.556 31.4955 200.42 31.2287C200.286 30.9619 200.095 30.7513 199.847 30.5969C199.601 30.4426 199.311 30.3654 198.976 30.3654C198.607 30.3654 198.288 30.457 198.018 30.6401C197.751 30.8206 197.546 31.056 197.402 31.3464C197.258 31.6368 197.186 31.9481 197.186 32.2803L197.186 32.814C197.186 33.2692 197.265 33.655 197.422 33.9716C197.581 34.2855 197.802 34.5249 198.085 34.6897C198.368 34.8519 198.696 34.933 199.07 34.933C199.313 34.933 199.533 34.8989 199.729 34.8309C199.928 34.7603 200.099 34.6557 200.243 34.517C200.387 34.3757 200.498 34.2005 200.577 33.9912L201.471 34.2423C201.377 34.5458 201.219 34.8126 200.997 35.0428C200.774 35.2704 200.5 35.4483 200.173 35.5765C199.846 35.7021 199.478 35.7648 199.07 35.7648Z" fill="rgb(156,163,175)" fill-rule="nonzero" />
			</g>
			<g id="Span" customFrame="url(#clipPath_6)">
				<rect id="Span" width="4.687500" height="19.492188" x="215.742188" y="21.933594" />
				<path id="/" d="M219.431 27.2262L216.841 36.8479L215.993 36.8479L218.583 27.2262L219.431 27.2262Z" fill="rgb(209,213,219)" fill-rule="nonzero" />
			</g>
			<g id="Span" customFrame="url(#clipPath_7)">
				<rect id="Span" width="67.812500" height="19.492188" x="228.427734" y="21.933594" />
				<path id="Dashboard" d="M231.912 35.6393L229.311 35.6393L229.311 27.6029L231.995 27.6029C232.782 27.6029 233.458 27.7638 234.023 28.0856C234.588 28.4047 235.021 28.8638 235.322 29.4629C235.626 30.0593 235.777 30.7748 235.777 31.6093C235.777 32.4464 235.624 33.1658 235.318 33.7675C235.015 34.3692 234.575 34.8322 234 35.1566C233.424 35.4784 232.728 35.6393 231.912 35.6393ZM230.523 34.5798L231.846 34.5798C232.458 34.5798 232.967 34.4647 233.372 34.2345C233.777 34.0017 234.081 33.6655 234.282 33.226C234.484 32.7839 234.585 32.245 234.585 31.6093C234.585 30.9789 234.484 30.4439 234.282 30.0044C234.084 29.5649 233.787 29.2314 233.392 29.0038C232.997 28.7762 232.506 28.6624 231.92 28.6624L230.523 28.6624L230.523 34.5798ZM238.945 35.7727C238.563 35.7727 238.218 35.7021 237.909 35.5608C237.6 35.4169 237.356 35.2089 237.175 34.9369C236.997 34.6648 236.908 34.3313 236.908 33.9363C236.908 33.5962 236.974 33.3163 237.105 33.0965C237.235 32.8768 237.412 32.7028 237.634 32.5746C237.857 32.4464 238.105 32.3497 238.38 32.2842C238.655 32.2188 238.935 32.1691 239.22 32.1351C239.581 32.0933 239.874 32.0593 240.099 32.0331C240.324 32.0043 240.487 31.9586 240.589 31.8958C240.691 31.833 240.742 31.731 240.742 31.5897L240.742 31.5622C240.742 31.2195 240.645 30.954 240.452 30.7657C240.261 30.5773 239.976 30.4831 239.596 30.4831C239.201 30.4831 238.89 30.5708 238.663 30.746C238.438 30.9187 238.282 31.111 238.196 31.3229L237.093 31.0717C237.224 30.7055 237.415 30.4099 237.666 30.1849C237.92 29.9573 238.211 29.7925 238.541 29.6905C238.87 29.5858 239.217 29.5335 239.581 29.5335C239.821 29.5335 240.076 29.5623 240.346 29.6199C240.618 29.6748 240.872 29.7768 241.107 29.9259C241.345 30.075 241.54 30.2882 241.692 30.5655C241.844 30.8402 241.919 31.1973 241.919 31.6368L241.919 35.6393L240.774 35.6393L240.774 34.8152L240.727 34.8152C240.651 34.967 240.537 35.1161 240.385 35.2626C240.233 35.4091 240.039 35.5307 239.8 35.6275C239.562 35.7243 239.277 35.7727 238.945 35.7727ZM239.2 34.8309C239.524 34.8309 239.802 34.7668 240.032 34.6387C240.265 34.5105 240.441 34.343 240.562 34.1364C240.685 33.9271 240.746 33.7034 240.746 33.4654L240.746 32.6884C240.704 32.7303 240.623 32.7695 240.503 32.8061C240.385 32.8401 240.25 32.8702 240.099 32.8964C239.947 32.9199 239.799 32.9422 239.655 32.9631C239.511 32.9814 239.391 32.9971 239.294 33.0102C239.067 33.039 238.859 33.0874 238.67 33.1554C238.485 33.2234 238.336 33.3215 238.223 33.4497C238.113 33.5752 238.058 33.7427 238.058 33.952C238.058 34.2423 238.165 34.4621 238.38 34.6112C238.595 34.7577 238.868 34.8309 239.2 34.8309ZM247.999 31.0835L246.935 31.2719C246.891 31.1358 246.82 31.0063 246.723 30.8834C246.629 30.7604 246.501 30.6597 246.339 30.5812C246.177 30.5028 245.974 30.4635 245.731 30.4635C245.398 30.4635 245.121 30.5381 244.899 30.6872C244.676 30.8337 244.565 31.0233 244.565 31.2562C244.565 31.4576 244.64 31.6198 244.789 31.7427C244.938 31.8657 245.179 31.9664 245.511 32.0449L246.468 32.2646C247.023 32.3928 247.436 32.5903 247.708 32.8572C247.98 33.124 248.116 33.4706 248.116 33.897C248.116 34.258 248.012 34.5798 247.803 34.8623C247.596 35.1422 247.307 35.362 246.935 35.5216C246.566 35.6811 246.139 35.7609 245.652 35.7609C244.977 35.7609 244.427 35.617 244 35.3293C243.574 35.0389 243.312 34.6269 243.215 34.0932L244.349 33.9206C244.42 34.2162 244.565 34.4398 244.785 34.5916C245.005 34.7407 245.291 34.8152 245.644 34.8152C246.029 34.8152 246.336 34.7354 246.566 34.5759C246.797 34.4137 246.912 34.2162 246.912 33.9833C246.912 33.795 246.841 33.6367 246.7 33.5085C246.561 33.3804 246.348 33.2836 246.06 33.2182L245.04 32.9945C244.478 32.8663 244.062 32.6623 243.792 32.3824C243.525 32.1024 243.392 31.748 243.392 31.3189C243.392 30.9632 243.491 30.6519 243.69 30.385C243.889 30.1182 244.164 29.9102 244.514 29.7611C244.865 29.6094 245.266 29.5335 245.719 29.5335C246.37 29.5335 246.883 29.6748 247.257 29.9573C247.631 30.2372 247.878 30.6126 247.999 31.0835ZM250.58 32.0606L250.58 35.6393L249.406 35.6393L249.406 27.6029L250.564 27.6029L250.564 30.593L250.639 30.593C250.78 30.2686 250.996 30.0109 251.286 29.82C251.576 29.629 251.956 29.5335 252.424 29.5335C252.837 29.5335 253.198 29.6185 253.507 29.7886C253.818 29.9586 254.059 30.2124 254.229 30.5498C254.402 30.8847 254.488 31.3032 254.488 31.8055L254.488 35.6393L253.315 35.6393L253.315 31.9468C253.315 31.5047 253.201 31.162 252.973 30.9187C252.746 30.6728 252.429 30.5498 252.024 30.5498C251.746 30.5498 251.498 30.6087 251.278 30.7264C251.061 30.8441 250.89 31.0168 250.764 31.2444C250.641 31.4694 250.58 31.7414 250.58 32.0606ZM256.148 35.6393L256.148 27.6029L257.321 27.6029L257.321 30.5891L257.392 30.5891C257.46 30.4635 257.558 30.3183 257.686 30.1535C257.814 29.9887 257.992 29.8448 258.22 29.7219C258.447 29.5963 258.748 29.5335 259.122 29.5335C259.609 29.5335 260.043 29.6565 260.425 29.9024C260.807 30.1483 261.107 30.5028 261.324 30.9658C261.543 31.4288 261.653 31.986 261.653 32.6374C261.653 33.2888 261.545 33.8473 261.328 34.313C261.11 34.776 260.812 35.1331 260.433 35.3842C260.054 35.6327 259.621 35.757 259.134 35.757C258.768 35.757 258.468 35.6955 258.235 35.5726C258.005 35.4496 257.825 35.3057 257.694 35.1409C257.563 34.9761 257.462 34.8296 257.392 34.7014L257.294 34.7014L257.294 35.6393L256.148 35.6393ZM257.298 32.6256C257.298 33.0494 257.359 33.4209 257.482 33.7401C257.605 34.0592 257.783 34.309 258.016 34.4895C258.249 34.6674 258.534 34.7564 258.871 34.7564C259.222 34.7564 259.515 34.6635 259.75 34.4778C259.986 34.2894 260.163 34.0344 260.284 33.7126C260.407 33.3908 260.468 33.0285 260.468 32.6256C260.468 32.228 260.408 31.8709 260.288 31.5544C260.17 31.2378 259.992 30.988 259.754 30.8049C259.519 30.6218 259.224 30.5302 258.871 30.5302C258.531 30.5302 258.243 30.6179 258.008 30.7931C257.775 30.9684 257.598 31.213 257.478 31.5269C257.358 31.8408 257.298 32.2071 257.298 32.6256ZM265.51 35.7609C264.945 35.7609 264.451 35.6314 264.03 35.3724C263.609 35.1135 263.282 34.7511 263.049 34.2855C262.816 33.8198 262.7 33.2757 262.7 32.6531C262.7 32.0279 262.816 31.4811 263.049 31.0129C263.282 30.5446 263.609 30.181 264.03 29.922C264.451 29.663 264.945 29.5335 265.51 29.5335C266.075 29.5335 266.568 29.663 266.989 29.922C267.41 30.181 267.737 30.5446 267.97 31.0129C268.203 31.4811 268.319 32.0279 268.319 32.6531C268.319 33.2757 268.203 33.8198 267.97 34.2855C267.737 34.7511 267.41 35.1135 266.989 35.3724C266.568 35.6314 266.075 35.7609 265.51 35.7609ZM265.514 34.776C265.88 34.776 266.183 34.6792 266.424 34.4856C266.665 34.292 266.842 34.0344 266.958 33.7126C267.075 33.3908 267.134 33.0364 267.134 32.6492C267.134 32.2646 267.075 31.9115 266.958 31.5897C266.842 31.2653 266.665 31.005 266.424 30.8088C266.183 30.6126 265.88 30.5145 265.514 30.5145C265.145 30.5145 264.839 30.6126 264.595 30.8088C264.355 31.005 264.175 31.2653 264.058 31.5897C263.943 31.9115 263.885 32.2646 263.885 32.6492C263.885 33.0364 263.943 33.3908 264.058 33.7126C264.175 34.0344 264.355 34.292 264.595 34.4856C264.839 34.6792 265.145 34.776 265.514 34.776ZM271.383 35.7727C271.001 35.7727 270.656 35.7021 270.347 35.5608C270.038 35.4169 269.794 35.2089 269.613 34.9369C269.435 34.6648 269.346 34.3313 269.346 33.9363C269.346 33.5962 269.412 33.3163 269.542 33.0965C269.673 32.8768 269.85 32.7028 270.072 32.5746C270.295 32.4464 270.543 32.3497 270.818 32.2842C271.092 32.2188 271.372 32.1691 271.658 32.1351C272.019 32.0933 272.312 32.0593 272.536 32.0331C272.761 32.0043 272.925 31.9586 273.027 31.8958C273.129 31.833 273.18 31.731 273.18 31.5897L273.18 31.5622C273.18 31.2195 273.083 30.954 272.89 30.7657C272.699 30.5773 272.414 30.4831 272.034 30.4831C271.639 30.4831 271.328 30.5708 271.1 30.746C270.875 30.9187 270.72 31.111 270.633 31.3229L269.531 31.0717C269.661 30.7055 269.852 30.4099 270.104 30.1849C270.357 29.9573 270.649 29.7925 270.979 29.6905C271.308 29.5858 271.655 29.5335 272.019 29.5335C272.259 29.5335 272.514 29.5623 272.784 29.6199C273.056 29.6748 273.31 29.7768 273.545 29.9259C273.783 30.075 273.978 30.2882 274.13 30.5655C274.281 30.8402 274.357 31.1973 274.357 31.6368L274.357 35.6393L273.211 35.6393L273.211 34.8152L273.164 34.8152C273.088 34.967 272.975 35.1161 272.823 35.2626C272.671 35.4091 272.476 35.5307 272.238 35.6275C272 35.7243 271.715 35.7727 271.383 35.7727ZM271.638 34.8309C271.962 34.8309 272.24 34.7668 272.47 34.6387C272.703 34.5105 272.879 34.343 273 34.1364C273.122 33.9271 273.184 33.7034 273.184 33.4654L273.184 32.6884C273.142 32.7303 273.061 32.7695 272.941 32.8061C272.823 32.8401 272.688 32.8702 272.536 32.8964C272.385 32.9199 272.237 32.9422 272.093 32.9631C271.949 32.9814 271.829 32.9971 271.732 33.0102C271.504 33.039 271.297 33.0874 271.108 33.1554C270.922 33.2234 270.773 33.3215 270.661 33.4497C270.551 33.5752 270.496 33.7427 270.496 33.952C270.496 34.2423 270.603 34.4621 270.818 34.6112C271.032 34.7577 271.306 34.8309 271.638 34.8309ZM275.92 35.6393L275.92 29.612L277.054 29.612L277.054 30.5695L277.117 30.5695C277.227 30.2451 277.42 29.99 277.698 29.8043C277.977 29.6159 278.294 29.5218 278.647 29.5218C278.72 29.5218 278.807 29.5244 278.906 29.5296C279.008 29.5348 279.088 29.5414 279.146 29.5492L279.146 30.6715C279.098 30.6584 279.015 30.644 278.894 30.6283C278.774 30.61 278.654 30.6009 278.533 30.6009C278.256 30.6009 278.009 30.6597 277.792 30.7774C277.577 30.8925 277.407 31.0534 277.282 31.2601C277.156 31.4641 277.093 31.697 277.093 31.9586L277.093 35.6393L275.92 35.6393ZM282.201 35.757C281.715 35.757 281.28 35.6327 280.899 35.3842C280.519 35.1331 280.221 34.776 280.004 34.313C279.789 33.8473 279.682 33.2888 279.682 32.6374C279.682 31.986 279.791 31.4288 280.008 30.9658C280.228 30.5028 280.528 30.1483 280.91 29.9024C281.292 29.6565 281.725 29.5335 282.209 29.5335C282.583 29.5335 282.884 29.5963 283.112 29.7219C283.342 29.8448 283.52 29.9887 283.645 30.1535C283.774 30.3183 283.873 30.4635 283.944 30.5891L284.014 30.5891L284.014 27.6029L285.188 27.6029L285.188 35.6393L284.042 35.6393L284.042 34.7014L283.944 34.7014C283.873 34.8296 283.771 34.9761 283.638 35.1409C283.507 35.3057 283.326 35.4496 283.096 35.5726C282.866 35.6955 282.568 35.757 282.201 35.757ZM282.46 34.7564C282.798 34.7564 283.083 34.6674 283.316 34.4895C283.551 34.309 283.729 34.0592 283.849 33.7401C283.972 33.4209 284.034 33.0494 284.034 32.6256C284.034 32.2071 283.974 31.8408 283.853 31.5269C283.733 31.213 283.556 30.9684 283.324 30.7931C283.091 30.6179 282.803 30.5302 282.46 30.5302C282.107 30.5302 281.813 30.6218 281.577 30.8049C281.342 30.988 281.164 31.2378 281.044 31.5544C280.926 31.8709 280.867 32.228 280.867 32.6256C280.867 33.0285 280.927 33.3908 281.048 33.7126C281.168 34.0344 281.346 34.2894 281.581 34.4778C281.819 34.6635 282.112 34.7564 282.46 34.7564Z" fill="rgb(0,0,0)" fill-rule="nonzero" />
			</g>
		</g>
	</g>
	<g id="Container" customFrame="url(#clipPath_8)">
		<rect id="Container" width="671.992188" height="36.738281" x="403.916016" y="13.310547" />
		<g id="Container" customFrame="url(#clipPath_9)">
			<rect id="Container" width="608.007812" height="36.738281" x="435.908203" y="13.310547" />
			<g id="Container" customFrame="url(#clipPath_10)">
				<rect id="Container" width="27.988281" height="36.738281" x="435.908203" y="13.310547" />
				<g id="Frame" clip-path="url(#clipPath_11)" customFrame="url(#clipPath_11)">
					<rect id="Frame" width="15.996094" height="15.996094" x="447.900391" y="23.681641" fill="rgb(255,255,255)" fill-opacity="0" />
					<path id="Vector" d="M461.898 37.6789L459.004 34.7856" fill-rule="nonzero" stroke="rgb(156,163,175)" stroke-linecap="round" stroke-linejoin="round" stroke-width="1" />
					<path id="Vector" d="M455.232 36.3452C452.287 36.3452 449.9 33.958 449.9 31.0132C449.9 28.0684 452.287 25.6812 455.232 25.6812C458.177 25.6812 460.564 28.0684 460.564 31.0132C460.564 33.958 458.177 36.3452 455.232 36.3452Z" stroke="rgb(156,163,175)" stroke-linecap="round" stroke-linejoin="round" stroke-width="1" />
				</g>
			</g>
			<g id="Input" customFrame="url(#clipPath_12)">
				<rect id="Input" width="608.007812" height="36.738281" x="435.908203" y="13.310547" fill="rgb(249,250,251)" />
				<rect id="Input" width="608.007812" height="36.738281" x="435.908203" y="13.310547" stroke="rgb(238,238,238)" stroke-width="0" />
				<path id="Search leads, contacts, deals..." d="M482.224 29.3161C482.168 28.8482 481.943 28.4851 481.55 28.2266C481.156 27.968 480.672 27.8388 480.1 27.8388C479.681 27.8388 479.315 27.9065 479.001 28.0419C478.69 28.1773 478.447 28.3635 478.272 28.6005C478.099 28.8375 478.013 29.1068 478.013 29.4084C478.013 29.6607 478.073 29.8777 478.193 30.0593C478.316 30.2378 478.473 30.3871 478.664 30.5071C478.855 30.6241 479.055 30.721 479.264 30.7979C479.474 30.8718 479.666 30.9318 479.841 30.978L480.802 31.2365C481.048 31.3011 481.322 31.3904 481.623 31.5043C481.928 31.6181 482.219 31.7736 482.496 31.9705C482.776 32.1644 483.007 32.4137 483.188 32.7184C483.37 33.0231 483.461 33.397 483.461 33.8402C483.461 34.3511 483.327 34.8127 483.059 35.2251C482.794 35.6375 482.407 35.9653 481.896 36.2085C481.388 36.4516 480.771 36.5732 480.045 36.5732C479.367 36.5732 478.781 36.4639 478.286 36.2454C477.793 36.0269 477.405 35.7222 477.122 35.3313C476.842 34.9405 476.684 34.4865 476.647 33.9695L477.829 33.9695C477.859 34.3265 477.979 34.6219 478.189 34.8558C478.401 35.0866 478.669 35.259 478.992 35.3729C479.318 35.4837 479.669 35.5391 480.045 35.5391C480.482 35.5391 480.874 35.4683 481.222 35.3267C481.57 35.1821 481.845 34.982 482.048 34.7266C482.251 34.468 482.353 34.1664 482.353 33.8217C482.353 33.5078 482.265 33.2524 482.09 33.0554C481.914 32.8584 481.683 32.6984 481.397 32.5753C481.111 32.4522 480.802 32.3445 480.469 32.2521L479.306 31.9197C478.567 31.7074 477.983 31.4042 477.552 31.0103C477.121 30.6164 476.905 30.1009 476.905 29.4638C476.905 28.9344 477.048 28.4728 477.335 28.0788C477.624 27.6818 478.012 27.3741 478.498 27.1555C478.987 26.9339 479.534 26.8232 480.137 26.8232C480.746 26.8232 481.288 26.9324 481.762 27.1509C482.236 27.3664 482.611 27.6618 482.888 28.0373C483.168 28.4128 483.316 28.839 483.332 29.3161L482.224 29.3161ZM488.168 36.5547C487.485 36.5547 486.896 36.4039 486.4 36.1023C485.908 35.7976 485.528 35.3729 485.26 34.8281C484.995 34.2803 484.863 33.6432 484.863 32.9169C484.863 32.1906 484.995 31.5504 485.26 30.9964C485.528 30.4394 485.9 30.0054 486.377 29.6946C486.857 29.3807 487.417 29.2237 488.058 29.2237C488.427 29.2237 488.792 29.2853 489.152 29.4084C489.512 29.5315 489.84 29.7315 490.135 30.0085C490.43 30.2824 490.666 30.6456 490.841 31.098C491.017 31.5504 491.104 32.1075 491.104 32.7692L491.104 33.2308L485.639 33.2308L485.639 32.2891L489.997 32.2891C489.997 31.889 489.917 31.532 489.756 31.218C489.6 30.9041 489.375 30.6564 489.082 30.4748C488.793 30.2932 488.452 30.2024 488.058 30.2024C487.624 30.2024 487.248 30.3101 486.931 30.5256C486.617 30.7379 486.376 31.0149 486.206 31.3565C486.037 31.6982 485.953 32.0644 485.953 32.4553L485.953 33.0831C485.953 33.6186 486.045 34.0726 486.229 34.445C486.417 34.8143 486.677 35.0959 487.01 35.2898C487.342 35.4806 487.728 35.576 488.168 35.576C488.455 35.576 488.713 35.536 488.944 35.456C489.178 35.3729 489.379 35.2498 489.549 35.0866C489.718 34.9205 489.849 34.7143 489.941 34.468L490.994 34.7635C490.883 35.1205 490.697 35.4344 490.435 35.7053C490.173 35.973 489.85 36.1823 489.466 36.3331C489.081 36.4808 488.649 36.5547 488.168 36.5547ZM494.848 36.5732C494.399 36.5732 493.991 36.4885 493.625 36.3192C493.259 36.1469 492.968 35.8991 492.753 35.576C492.537 35.2498 492.429 34.8558 492.429 34.3942C492.429 33.9879 492.509 33.6586 492.669 33.4062C492.83 33.1508 493.043 32.9508 493.311 32.8061C493.579 32.6615 493.874 32.5537 494.198 32.483C494.524 32.4091 494.852 32.3506 495.181 32.3075C495.612 32.2521 495.961 32.2106 496.229 32.1829C496.5 32.1521 496.697 32.1013 496.82 32.0305C496.946 31.9598 497.009 31.8366 497.009 31.6612L497.009 31.6243C497.009 31.1688 496.884 30.8149 496.635 30.5625C496.389 30.3101 496.015 30.1839 495.513 30.1839C494.993 30.1839 494.585 30.2978 494.29 30.5256C493.994 30.7533 493.787 30.9964 493.667 31.255L492.633 30.8857C492.817 30.4548 493.063 30.1193 493.371 29.8793C493.682 29.6361 494.021 29.4669 494.387 29.3714C494.756 29.273 495.119 29.2237 495.476 29.2237C495.704 29.2237 495.966 29.2514 496.261 29.3068C496.56 29.3591 496.847 29.4684 497.124 29.6346C497.404 29.8008 497.637 30.0516 497.821 30.3871C498.006 30.7225 498.098 31.1719 498.098 31.7351L498.098 36.407L497.009 36.407L497.009 35.4467L496.954 35.4467C496.88 35.6006 496.757 35.7653 496.584 35.9407C496.412 36.1161 496.183 36.2654 495.896 36.3885C495.61 36.5116 495.261 36.5732 494.848 36.5732ZM495.015 35.5945C495.446 35.5945 495.809 35.5098 496.104 35.3406C496.403 35.1713 496.627 34.9528 496.778 34.685C496.932 34.4173 497.009 34.1357 497.009 33.8402L497.009 32.843C496.963 32.8984 496.861 32.9492 496.704 32.9954C496.55 33.0385 496.372 33.0769 496.169 33.1108C495.969 33.1416 495.773 33.1693 495.582 33.1939C495.395 33.2154 495.242 33.2339 495.125 33.2493C494.842 33.2862 494.578 33.3462 494.331 33.4293C494.088 33.5094 493.891 33.6309 493.741 33.794C493.593 33.9541 493.519 34.1726 493.519 34.4496C493.519 34.8281 493.659 35.1143 493.939 35.3082C494.222 35.4991 494.581 35.5945 495.015 35.5945ZM500.087 36.407L500.087 29.3161L501.14 29.3161L501.14 30.3871L501.213 30.3871C501.343 30.0362 501.577 29.7515 501.915 29.533C502.254 29.3145 502.635 29.2053 503.06 29.2053C503.14 29.2053 503.24 29.2068 503.36 29.2099C503.48 29.2129 503.571 29.2176 503.632 29.2237L503.632 30.3317C503.596 30.3224 503.511 30.3086 503.379 30.2901C503.249 30.2686 503.112 30.2578 502.968 30.2578C502.623 30.2578 502.315 30.3301 502.044 30.4748C501.777 30.6164 501.564 30.8133 501.407 31.0657C501.253 31.315 501.176 31.5997 501.176 31.9197L501.176 36.407L500.087 36.407ZM507.589 36.5547C506.924 36.5547 506.352 36.3977 505.871 36.0838C505.391 35.7699 505.022 35.3375 504.763 34.7866C504.505 34.2357 504.376 33.6063 504.376 32.8984C504.376 32.1783 504.508 31.5427 504.773 30.9918C505.04 30.4379 505.413 30.0054 505.89 29.6946C506.37 29.3807 506.93 29.2237 507.57 29.2237C508.069 29.2237 508.518 29.3161 508.918 29.5007C509.318 29.6854 509.646 29.9439 509.902 30.2763C510.157 30.6087 510.316 30.9964 510.377 31.4396L509.288 31.4396C509.205 31.1165 509.02 30.8303 508.734 30.581C508.451 30.3286 508.069 30.2024 507.589 30.2024C507.164 30.2024 506.792 30.3132 506.472 30.5348C506.155 30.7533 505.907 31.0626 505.728 31.4627C505.553 31.8597 505.465 32.326 505.465 32.8615C505.465 33.4093 505.551 33.8864 505.724 34.2926C505.899 34.6989 506.145 35.0143 506.462 35.239C506.782 35.4637 507.158 35.576 507.589 35.576C507.872 35.576 508.129 35.5268 508.36 35.4283C508.591 35.3298 508.786 35.1882 508.946 35.0036C509.106 34.8189 509.22 34.5973 509.288 34.3388L510.377 34.3388C510.316 34.7573 510.163 35.1344 509.92 35.4698C509.68 35.8022 509.362 36.0669 508.964 36.2638C508.571 36.4577 508.112 36.5547 507.589 36.5547ZM513.059 32.1413L513.059 36.407L511.97 36.407L511.97 26.9524L513.059 26.9524L513.059 30.424L513.152 30.424C513.318 30.0578 513.567 29.7669 513.899 29.5515C514.235 29.333 514.681 29.2237 515.238 29.2237C515.721 29.2237 516.145 29.3207 516.508 29.5146C516.871 29.7054 517.153 29.9993 517.353 30.3963C517.556 30.7902 517.657 31.2919 517.657 31.9013L517.657 36.407L516.568 36.407L516.568 31.9751C516.568 31.4119 516.422 30.9764 516.129 30.6687C515.84 30.3578 515.438 30.2024 514.924 30.2024C514.567 30.2024 514.247 30.2778 513.964 30.4286C513.684 30.5794 513.462 30.7995 513.299 31.0888C513.139 31.3781 513.059 31.7289 513.059 32.1413ZM524.396 26.9524L524.396 36.407L523.307 36.407L523.307 26.9524L524.396 26.9524ZM529.365 36.5547C528.681 36.5547 528.092 36.4039 527.597 36.1023C527.104 35.7976 526.724 35.3729 526.456 34.8281C526.192 34.2803 526.059 33.6432 526.059 32.9169C526.059 32.1906 526.192 31.5504 526.456 30.9964C526.724 30.4394 527.096 30.0054 527.573 29.6946C528.054 29.3807 528.614 29.2237 529.254 29.2237C529.623 29.2237 529.988 29.2853 530.348 29.4084C530.708 29.5315 531.036 29.7315 531.331 30.0085C531.627 30.2824 531.862 30.6456 532.038 31.098C532.213 31.5504 532.301 32.1075 532.301 32.7692L532.301 33.2308L526.835 33.2308L526.835 32.2891L531.193 32.2891C531.193 31.889 531.113 31.532 530.953 31.218C530.796 30.9041 530.571 30.6564 530.279 30.4748C529.989 30.2932 529.648 30.2024 529.254 30.2024C528.82 30.2024 528.444 30.3101 528.128 30.5256C527.814 30.7379 527.572 31.0149 527.403 31.3565C527.233 31.6982 527.149 32.0644 527.149 32.4553L527.149 33.0831C527.149 33.6186 527.241 34.0726 527.426 34.445C527.614 34.8143 527.874 35.0959 528.206 35.2898C528.538 35.4806 528.925 35.576 529.365 35.576C529.651 35.576 529.909 35.536 530.14 35.456C530.374 35.3729 530.576 35.2498 530.745 35.0866C530.914 34.9205 531.045 34.7143 531.137 34.468L532.19 34.7635C532.079 35.1205 531.893 35.4344 531.631 35.7053C531.37 35.973 531.047 36.1823 530.662 36.3331C530.277 36.4808 529.845 36.5547 529.365 36.5547ZM536.045 36.5732C535.595 36.5732 535.188 36.4885 534.821 36.3192C534.455 36.1469 534.164 35.8991 533.949 35.576C533.733 35.2498 533.626 34.8558 533.626 34.3942C533.626 33.9879 533.706 33.6586 533.866 33.4062C534.026 33.1508 534.24 32.9508 534.507 32.8061C534.775 32.6615 535.071 32.5537 535.394 32.483C535.72 32.4091 536.048 32.3506 536.377 32.3075C536.808 32.2521 537.157 32.2106 537.425 32.1829C537.696 32.1521 537.893 32.1013 538.016 32.0305C538.142 31.9598 538.205 31.8366 538.205 31.6612L538.205 31.6243C538.205 31.1688 538.081 30.8149 537.831 30.5625C537.585 30.3101 537.211 30.1839 536.71 30.1839C536.189 30.1839 535.782 30.2978 535.486 30.5256C535.191 30.7533 534.983 30.9964 534.863 31.255L533.829 30.8857C534.013 30.4548 534.26 30.1193 534.567 29.8793C534.878 29.6361 535.217 29.4669 535.583 29.3714C535.952 29.273 536.316 29.2237 536.673 29.2237C536.9 29.2237 537.162 29.2514 537.457 29.3068C537.756 29.3591 538.044 29.4684 538.321 29.6346C538.601 29.8008 538.833 30.0516 539.018 30.3871C539.202 30.7225 539.295 31.1719 539.295 31.7351L539.295 36.407L538.205 36.407L538.205 35.4467L538.15 35.4467C538.076 35.6006 537.953 35.7653 537.781 35.9407C537.608 36.1161 537.379 36.2654 537.093 36.3885C536.806 36.5116 536.457 36.5732 536.045 36.5732ZM536.211 35.5945C536.642 35.5945 537.005 35.5098 537.3 35.3406C537.599 35.1713 537.824 34.9528 537.974 34.685C538.128 34.4173 538.205 34.1357 538.205 33.8402L538.205 32.843C538.159 32.8984 538.058 32.9492 537.901 32.9954C537.747 33.0385 537.568 33.0769 537.365 33.1108C537.165 33.1416 536.97 33.1693 536.779 33.1939C536.591 33.2154 536.439 33.2339 536.322 33.2493C536.039 33.2862 535.774 33.3462 535.528 33.4293C535.285 33.5094 535.088 33.6309 534.937 33.794C534.789 33.9541 534.715 34.1726 534.715 34.4496C534.715 34.8281 534.855 35.1143 535.135 35.3082C535.418 35.4991 535.777 35.5945 536.211 35.5945ZM543.961 36.5547C543.37 36.5547 542.848 36.4054 542.396 36.1069C541.943 35.8053 541.59 35.3806 541.334 34.8327C541.079 34.2818 540.951 33.6309 540.951 32.88C540.951 32.1352 541.079 31.4889 541.334 30.9411C541.59 30.3932 541.945 29.9701 542.401 29.6715C542.856 29.373 543.382 29.2237 543.979 29.2237C544.441 29.2237 544.806 29.3007 545.073 29.4545C545.344 29.6054 545.55 29.7777 545.692 29.9716C545.837 30.1624 545.949 30.3194 546.029 30.4425L546.121 30.4425L546.121 26.9524L547.211 26.9524L547.211 36.407L546.158 36.407L546.158 35.3175L546.029 35.3175C545.949 35.4467 545.835 35.6098 545.687 35.8068C545.54 36.0007 545.329 36.1746 545.055 36.3285C544.781 36.4793 544.416 36.5547 543.961 36.5547ZM544.109 35.576C544.546 35.576 544.915 35.4621 545.217 35.2344C545.518 35.0036 545.747 34.685 545.904 34.2788C546.061 33.8694 546.14 33.397 546.14 32.8615C546.14 32.3321 546.063 31.869 545.909 31.4719C545.755 31.0719 545.527 30.761 545.226 30.5394C544.924 30.3147 544.552 30.2024 544.109 30.2024C543.647 30.2024 543.262 30.3209 542.954 30.5579C542.65 30.7918 542.42 31.1103 542.267 31.5135C542.116 31.9136 542.04 32.3629 542.04 32.8615C542.04 33.3662 542.117 33.8248 542.271 34.2372C542.428 34.6465 542.659 34.9728 542.964 35.2159C543.271 35.456 543.653 35.576 544.109 35.576ZM554.38 30.9041L553.402 31.1811C553.34 31.018 553.249 30.8595 553.129 30.7056C553.012 30.5487 552.852 30.4194 552.649 30.3178C552.446 30.2163 552.186 30.1655 551.869 30.1655C551.435 30.1655 551.073 30.2655 550.784 30.4656C550.498 30.6625 550.355 30.9134 550.355 31.218C550.355 31.4889 550.453 31.7028 550.65 31.8597C550.847 32.0167 551.155 32.1475 551.573 32.2521L552.626 32.5107C553.26 32.6645 553.732 32.9 554.043 33.217C554.354 33.5309 554.51 33.9356 554.51 34.4311C554.51 34.8374 554.393 35.2005 554.159 35.5206C553.928 35.8407 553.605 36.093 553.189 36.2777C552.774 36.4624 552.291 36.5547 551.74 36.5547C551.016 36.5547 550.418 36.3977 549.944 36.0838C549.47 35.7699 549.17 35.3113 549.044 34.7081L550.078 34.4496C550.176 34.8312 550.362 35.1174 550.636 35.3082C550.913 35.4991 551.275 35.5945 551.721 35.5945C552.229 35.5945 552.632 35.4867 552.931 35.2713C553.232 35.0528 553.383 34.7912 553.383 34.4865C553.383 34.2403 553.297 34.0341 553.125 33.8679C552.952 33.6986 552.688 33.5724 552.331 33.4893L551.149 33.2124C550.499 33.0585 550.022 32.82 549.718 32.4968C549.416 32.1706 549.265 31.7628 549.265 31.2734C549.265 30.8733 549.378 30.5194 549.602 30.2116C549.83 29.9039 550.139 29.6623 550.53 29.4869C550.924 29.3114 551.37 29.2237 551.869 29.2237C552.571 29.2237 553.121 29.3776 553.522 29.6854C553.925 29.9931 554.211 30.3994 554.38 30.9041ZM557.775 35.1143L557.701 35.6129C557.648 35.9638 557.568 36.3393 557.461 36.7393C557.356 37.1394 557.247 37.5165 557.133 37.8704C557.019 38.2243 556.925 38.5059 556.851 38.7152L556.02 38.7152C556.06 38.5182 556.113 38.2582 556.177 37.935C556.242 37.6119 556.306 37.2502 556.371 36.8501C556.439 36.4531 556.494 36.0469 556.537 35.6314L556.593 35.1143L557.775 35.1143ZM566.33 36.5547C565.665 36.5547 565.093 36.3977 564.613 36.0838C564.133 35.7699 563.763 35.3375 563.505 34.7866C563.246 34.2357 563.117 33.6063 563.117 32.8984C563.117 32.1783 563.249 31.5427 563.514 30.9918C563.782 30.4379 564.154 30.0054 564.631 29.6946C565.111 29.3807 565.671 29.2237 566.312 29.2237C566.81 29.2237 567.259 29.3161 567.66 29.5007C568.06 29.6854 568.387 29.9439 568.643 30.2763C568.898 30.6087 569.057 30.9964 569.118 31.4396L568.029 31.4396C567.946 31.1165 567.761 30.8303 567.475 30.581C567.192 30.3286 566.81 30.2024 566.33 30.2024C565.905 30.2024 565.533 30.3132 565.213 30.5348C564.896 30.7533 564.648 31.0626 564.47 31.4627C564.294 31.8597 564.206 32.326 564.206 32.8615C564.206 33.4093 564.293 33.8864 564.465 34.2926C564.64 34.6989 564.887 35.0143 565.204 35.239C565.524 35.4637 565.899 35.576 566.33 35.576C566.613 35.576 566.87 35.5268 567.101 35.4283C567.332 35.3298 567.527 35.1882 567.687 35.0036C567.847 34.8189 567.961 34.5973 568.029 34.3388L569.118 34.3388C569.057 34.7573 568.904 35.1344 568.661 35.4698C568.421 35.8022 568.103 36.0669 567.706 36.2638C567.312 36.4577 566.853 36.5547 566.33 36.5547ZM573.592 36.5547C572.952 36.5547 572.39 36.4023 571.907 36.0977C571.427 35.793 571.051 35.3667 570.78 34.8189C570.513 34.2711 570.379 33.6309 570.379 32.8984C570.379 32.1598 570.513 31.515 570.78 30.9641C571.051 30.4132 571.427 29.9854 571.907 29.6808C572.39 29.3761 572.952 29.2237 573.592 29.2237C574.232 29.2237 574.792 29.3761 575.272 29.6808C575.755 29.9854 576.131 30.4132 576.399 30.9641C576.669 31.515 576.805 32.1598 576.805 32.8984C576.805 33.6309 576.669 34.2711 576.399 34.8189C576.131 35.3667 575.755 35.793 575.272 36.0977C574.792 36.4023 574.232 36.5547 573.592 36.5547ZM573.592 35.576C574.078 35.576 574.478 35.4513 574.792 35.2021C575.106 34.9528 575.338 34.625 575.489 34.2188C575.64 33.8125 575.715 33.3724 575.715 32.8984C575.715 32.4245 575.64 31.9828 575.489 31.5735C575.338 31.1642 575.106 30.8333 574.792 30.581C574.478 30.3286 574.078 30.2024 573.592 30.2024C573.105 30.2024 572.705 30.3286 572.391 30.581C572.078 30.8333 571.845 31.1642 571.694 31.5735C571.544 31.9828 571.468 32.4245 571.468 32.8984C571.468 33.3724 571.544 33.8125 571.694 34.2188C571.845 34.625 572.078 34.9528 572.391 35.2021C572.705 35.4513 573.105 35.576 573.592 35.576ZM579.557 32.1413L579.557 36.407L578.468 36.407L578.468 29.3161L579.52 29.3161L579.52 30.424L579.613 30.424C579.779 30.0639 580.031 29.7746 580.37 29.5561C580.708 29.3345 581.145 29.2237 581.681 29.2237C582.161 29.2237 582.581 29.3222 582.941 29.5192C583.301 29.7131 583.581 30.0085 583.781 30.4055C583.981 30.7995 584.081 31.2981 584.081 31.9013L584.081 36.407L582.992 36.407L582.992 31.9751C582.992 31.4181 582.847 30.9841 582.558 30.6733C582.269 30.3594 581.872 30.2024 581.367 30.2024C581.019 30.2024 580.708 30.2778 580.434 30.4286C580.164 30.5794 579.95 30.7995 579.793 31.0888C579.636 31.3781 579.557 31.7289 579.557 32.1413ZM589.156 29.3161L589.156 30.2393L585.481 30.2393L585.481 29.3161L589.156 29.3161ZM586.552 27.6172L587.642 27.6172L587.642 34.3757C587.642 34.6835 587.687 34.9143 587.776 35.0682C587.868 35.219 587.985 35.3205 588.127 35.3729C588.271 35.4221 588.424 35.4467 588.584 35.4467C588.704 35.4467 588.802 35.4406 588.879 35.4283C588.956 35.4129 589.018 35.4006 589.064 35.3913L589.285 36.37C589.212 36.3977 589.108 36.4254 588.976 36.4531C588.844 36.4839 588.676 36.4993 588.473 36.4993C588.165 36.4993 587.864 36.4331 587.568 36.3008C587.276 36.1684 587.033 35.9669 586.839 35.696C586.648 35.4252 586.552 35.0836 586.552 34.6712L586.552 27.6172ZM592.882 36.5732C592.432 36.5732 592.025 36.4885 591.658 36.3192C591.292 36.1469 591.001 35.8991 590.786 35.576C590.57 35.2498 590.463 34.8558 590.463 34.3942C590.463 33.9879 590.543 33.6586 590.703 33.4062C590.863 33.1508 591.077 32.9508 591.344 32.8061C591.612 32.6615 591.908 32.5537 592.231 32.483C592.557 32.4091 592.885 32.3506 593.214 32.3075C593.645 32.2521 593.994 32.2106 594.262 32.1829C594.533 32.1521 594.73 32.1013 594.853 32.0305C594.979 31.9598 595.042 31.8366 595.042 31.6612L595.042 31.6243C595.042 31.1688 594.918 30.8149 594.668 30.5625C594.422 30.3101 594.048 30.1839 593.546 30.1839C593.026 30.1839 592.619 30.2978 592.323 30.5256C592.028 30.7533 591.82 30.9964 591.7 31.255L590.666 30.8857C590.85 30.4548 591.097 30.1193 591.404 29.8793C591.715 29.6361 592.054 29.4669 592.42 29.3714C592.789 29.273 593.152 29.2237 593.51 29.2237C593.737 29.2237 593.999 29.2514 594.294 29.3068C594.593 29.3591 594.881 29.4684 595.158 29.6346C595.438 29.8008 595.67 30.0516 595.855 30.3871C596.039 30.7225 596.132 31.1719 596.132 31.7351L596.132 36.407L595.042 36.407L595.042 35.4467L594.987 35.4467C594.913 35.6006 594.79 35.7653 594.617 35.9407C594.445 36.1161 594.216 36.2654 593.93 36.3885C593.643 36.5116 593.294 36.5732 592.882 36.5732ZM593.048 35.5945C593.479 35.5945 593.842 35.5098 594.137 35.3406C594.436 35.1713 594.661 34.9528 594.811 34.685C594.965 34.4173 595.042 34.1357 595.042 33.8402L595.042 32.843C594.996 32.8984 594.894 32.9492 594.737 32.9954C594.584 33.0385 594.405 33.0769 594.202 33.1108C594.002 33.1416 593.807 33.1693 593.616 33.1939C593.428 33.2154 593.276 33.2339 593.159 33.2493C592.875 33.2862 592.611 33.3462 592.365 33.4293C592.121 33.5094 591.924 33.6309 591.774 33.794C591.626 33.9541 591.552 34.1726 591.552 34.4496C591.552 34.8281 591.692 35.1143 591.972 35.3082C592.255 35.4991 592.614 35.5945 593.048 35.5945ZM601.001 36.5547C600.336 36.5547 599.764 36.3977 599.284 36.0838C598.803 35.7699 598.434 35.3375 598.176 34.7866C597.917 34.2357 597.788 33.6063 597.788 32.8984C597.788 32.1783 597.92 31.5427 598.185 30.9918C598.453 30.4379 598.825 30.0054 599.302 29.6946C599.782 29.3807 600.342 29.2237 600.982 29.2237C601.481 29.2237 601.93 29.3161 602.33 29.5007C602.731 29.6854 603.058 29.9439 603.314 30.2763C603.569 30.6087 603.728 30.9964 603.789 31.4396L602.7 31.4396C602.617 31.1165 602.432 30.8303 602.146 30.581C601.863 30.3286 601.481 30.2024 601.001 30.2024C600.576 30.2024 600.204 30.3132 599.884 30.5348C599.567 30.7533 599.319 31.0626 599.14 31.4627C598.965 31.8597 598.877 32.326 598.877 32.8615C598.877 33.4093 598.964 33.8864 599.136 34.2926C599.311 34.6989 599.557 35.0143 599.874 35.239C600.195 35.4637 600.57 35.576 601.001 35.576C601.284 35.576 601.541 35.5268 601.772 35.4283C602.003 35.3298 602.198 35.1882 602.358 35.0036C602.518 34.8189 602.632 34.5973 602.7 34.3388L603.789 34.3388C603.728 34.7573 603.575 35.1344 603.332 35.4698C603.092 35.8022 602.774 36.0669 602.377 36.2638C601.983 36.4577 601.524 36.5547 601.001 36.5547ZM608.466 29.3161L608.466 30.2393L604.791 30.2393L604.791 29.3161L608.466 29.3161ZM605.862 27.6172L606.952 27.6172L606.952 34.3757C606.952 34.6835 606.996 34.9143 607.085 35.0682C607.178 35.219 607.295 35.3205 607.436 35.3729C607.581 35.4221 607.733 35.4467 607.893 35.4467C608.013 35.4467 608.112 35.4406 608.189 35.4283C608.266 35.4129 608.327 35.4006 608.373 35.3913L608.595 36.37C608.521 36.3977 608.418 36.4254 608.286 36.4531C608.153 36.4839 607.986 36.4993 607.782 36.4993C607.475 36.4993 607.173 36.4331 606.878 36.3008C606.585 36.1684 606.342 35.9669 606.148 35.696C605.957 35.4252 605.862 35.0836 605.862 34.6712L605.862 27.6172ZM615 30.9041L614.022 31.1811C613.96 31.018 613.869 30.8595 613.749 30.7056C613.632 30.5487 613.472 30.4194 613.269 30.3178C613.066 30.2163 612.806 30.1655 612.489 30.1655C612.055 30.1655 611.693 30.2655 611.404 30.4656C611.118 30.6625 610.975 30.9134 610.975 31.218C610.975 31.4889 611.073 31.7028 611.27 31.8597C611.467 32.0167 611.775 32.1475 612.194 32.2521L613.246 32.5107C613.88 32.6645 614.353 32.9 614.663 33.217C614.974 33.5309 615.13 33.9356 615.13 34.4311C615.13 34.8374 615.013 35.2005 614.779 35.5206C614.548 35.8407 614.225 36.093 613.809 36.2777C613.394 36.4624 612.911 36.5547 612.36 36.5547C611.636 36.5547 611.038 36.3977 610.564 36.0838C610.09 35.7699 609.79 35.3113 609.664 34.7081L610.698 34.4496C610.796 34.8312 610.982 35.1174 611.256 35.3082C611.533 35.4991 611.895 35.5945 612.341 35.5945C612.849 35.5945 613.252 35.4867 613.551 35.2713C613.852 35.0528 614.003 34.7912 614.003 34.4865C614.003 34.2403 613.917 34.0341 613.745 33.8679C613.572 33.6986 613.308 33.5724 612.951 33.4893L611.769 33.2124C611.119 33.0585 610.642 32.82 610.338 32.4968C610.036 32.1706 609.885 31.7628 609.885 31.2734C609.885 30.8733 609.998 30.5194 610.222 30.2116C610.45 29.9039 610.759 29.6623 611.15 29.4869C611.544 29.3114 611.99 29.2237 612.489 29.2237C613.191 29.2237 613.742 29.3776 614.142 29.6854C614.545 29.9931 614.831 30.3994 615 30.9041ZM618.395 35.1143L618.321 35.6129C618.268 35.9638 618.188 36.3393 618.081 36.7393C617.976 37.1394 617.867 37.5165 617.753 37.8704C617.639 38.2243 617.545 38.5059 617.471 38.7152L616.64 38.7152C616.68 38.5182 616.733 38.2582 616.797 37.935C616.862 37.6119 616.927 37.2502 616.991 36.8501C617.059 36.4531 617.114 36.0469 617.157 35.6314L617.213 35.1143L618.395 35.1143ZM626.747 36.5547C626.156 36.5547 625.634 36.4054 625.182 36.1069C624.73 35.8053 624.376 35.3806 624.12 34.8327C623.865 34.2818 623.737 33.6309 623.737 32.88C623.737 32.1352 623.865 31.4889 624.12 30.9411C624.376 30.3932 624.731 29.9701 625.187 29.6715C625.642 29.373 626.168 29.2237 626.765 29.2237C627.227 29.2237 627.592 29.3007 627.86 29.4545C628.13 29.6054 628.337 29.7777 628.478 29.9716C628.623 30.1624 628.735 30.3194 628.815 30.4425L628.907 30.4425L628.907 26.9524L629.997 26.9524L629.997 36.407L628.944 36.407L628.944 35.3175L628.815 35.3175C628.735 35.4467 628.621 35.6098 628.474 35.8068C628.326 36.0007 628.115 36.1746 627.841 36.3285C627.567 36.4793 627.202 36.5547 626.747 36.5547ZM626.895 35.576C627.332 35.576 627.701 35.4621 628.003 35.2344C628.304 35.0036 628.534 34.685 628.691 34.2788C628.847 33.8694 628.926 33.397 628.926 32.8615C628.926 32.3321 628.849 31.869 628.695 31.4719C628.541 31.0719 628.313 30.761 628.012 30.5394C627.71 30.3147 627.338 30.2024 626.895 30.2024C626.433 30.2024 626.048 30.3209 625.741 30.5579C625.436 30.7918 625.207 31.1103 625.053 31.5135C624.902 31.9136 624.827 32.3629 624.827 32.8615C624.827 33.3662 624.903 33.8248 625.057 34.2372C625.214 34.6465 625.445 34.9728 625.75 35.2159C626.058 35.456 626.439 35.576 626.895 35.576ZM635.117 36.5547C634.433 36.5547 633.844 36.4039 633.349 36.1023C632.856 35.7976 632.476 35.3729 632.208 34.8281C631.944 34.2803 631.811 33.6432 631.811 32.9169C631.811 32.1906 631.944 31.5504 632.208 30.9964C632.476 30.4394 632.848 30.0054 633.325 29.6946C633.806 29.3807 634.366 29.2237 635.006 29.2237C635.375 29.2237 635.74 29.2853 636.1 29.4084C636.46 29.5315 636.788 29.7315 637.083 30.0085C637.379 30.2824 637.614 30.6456 637.79 31.098C637.965 31.5504 638.053 32.1075 638.053 32.7692L638.053 33.2308L632.587 33.2308L632.587 32.2891L636.945 32.2891C636.945 31.889 636.865 31.532 636.705 31.218C636.548 30.9041 636.323 30.6564 636.031 30.4748C635.741 30.2932 635.4 30.2024 635.006 30.2024C634.572 30.2024 634.196 30.3101 633.879 30.5256C633.566 30.7379 633.324 31.0149 633.155 31.3565C632.985 31.6982 632.901 32.0644 632.901 32.4553L632.901 33.0831C632.901 33.6186 632.993 34.0726 633.178 34.445C633.365 34.8143 633.626 35.0959 633.958 35.2898C634.29 35.4806 634.677 35.576 635.117 35.576C635.403 35.576 635.661 35.536 635.892 35.456C636.126 35.3729 636.328 35.2498 636.497 35.0866C636.666 34.9205 636.797 34.7143 636.889 34.468L637.942 34.7635C637.831 35.1205 637.645 35.4344 637.383 35.7053C637.122 35.973 636.799 36.1823 636.414 36.3331C636.029 36.4808 635.597 36.5547 635.117 36.5547ZM641.797 36.5732C641.347 36.5732 640.94 36.4885 640.573 36.3192C640.207 36.1469 639.916 35.8991 639.701 35.576C639.485 35.2498 639.378 34.8558 639.378 34.3942C639.378 33.9879 639.458 33.6586 639.618 33.4062C639.778 33.1508 639.992 32.9508 640.259 32.8061C640.527 32.6615 640.823 32.5537 641.146 32.483C641.472 32.4091 641.8 32.3506 642.129 32.3075C642.56 32.2521 642.909 32.2106 643.177 32.1829C643.448 32.1521 643.645 32.1013 643.768 32.0305C643.894 31.9598 643.957 31.8366 643.957 31.6612L643.957 31.6243C643.957 31.1688 643.833 30.8149 643.583 30.5625C643.337 30.3101 642.963 30.1839 642.461 30.1839C641.941 30.1839 641.534 30.2978 641.238 30.5256C640.943 30.7533 640.735 30.9964 640.615 31.255L639.581 30.8857C639.765 30.4548 640.012 30.1193 640.319 29.8793C640.63 29.6361 640.969 29.4669 641.335 29.3714C641.704 29.273 642.068 29.2237 642.425 29.2237C642.652 29.2237 642.914 29.2514 643.209 29.3068C643.508 29.3591 643.796 29.4684 644.073 29.6346C644.353 29.8008 644.585 30.0516 644.77 30.3871C644.954 30.7225 645.047 31.1719 645.047 31.7351L645.047 36.407L643.957 36.407L643.957 35.4467L643.902 35.4467C643.828 35.6006 643.705 35.7653 643.532 35.9407C643.36 36.1161 643.131 36.2654 642.845 36.3885C642.558 36.5116 642.209 36.5732 641.797 36.5732ZM641.963 35.5945C642.394 35.5945 642.757 35.5098 643.052 35.3406C643.351 35.1713 643.576 34.9528 643.726 34.685C643.88 34.4173 643.957 34.1357 643.957 33.8402L643.957 32.843C643.911 32.8984 643.809 32.9492 643.653 32.9954C643.499 33.0385 643.32 33.0769 643.117 33.1108C642.917 33.1416 642.722 33.1693 642.531 33.1939C642.343 33.2154 642.191 33.2339 642.074 33.2493C641.791 33.2862 641.526 33.3462 641.28 33.4293C641.036 33.5094 640.84 33.6309 640.689 33.794C640.541 33.9541 640.467 34.1726 640.467 34.4496C640.467 34.8281 640.607 35.1143 640.887 35.3082C641.17 35.4991 641.529 35.5945 641.963 35.5945ZM648.125 26.9524L648.125 36.407L647.035 36.407L647.035 26.9524L648.125 26.9524ZM655.143 30.9041L654.164 31.1811C654.103 31.018 654.012 30.8595 653.892 30.7056C653.775 30.5487 653.615 30.4194 653.412 30.3178C653.209 30.2163 652.949 30.1655 652.632 30.1655C652.198 30.1655 651.836 30.2655 651.547 30.4656C651.26 30.6625 651.117 30.9134 651.117 31.218C651.117 31.4889 651.216 31.7028 651.413 31.8597C651.61 32.0167 651.918 32.1475 652.336 32.2521L653.389 32.5107C654.023 32.6645 654.495 32.9 654.806 33.217C655.117 33.5309 655.272 33.9356 655.272 34.4311C655.272 34.8374 655.155 35.2005 654.921 35.5206C654.691 35.8407 654.367 36.093 653.952 36.2777C653.536 36.4624 653.053 36.5547 652.502 36.5547C651.779 36.5547 651.18 36.3977 650.706 36.0838C650.233 35.7699 649.932 35.3113 649.806 34.7081L650.84 34.4496C650.939 34.8312 651.125 35.1174 651.399 35.3082C651.676 35.4991 652.038 35.5945 652.484 35.5945C652.992 35.5945 653.395 35.4867 653.693 35.2713C653.995 35.0528 654.146 34.7912 654.146 34.4865C654.146 34.2403 654.06 34.0341 653.887 33.8679C653.715 33.6986 653.45 33.5724 653.093 33.4893L651.911 33.2124C651.262 33.0585 650.785 32.82 650.48 32.4968C650.179 32.1706 650.028 31.7628 650.028 31.2734C650.028 30.8733 650.14 30.5194 650.365 30.2116C650.593 29.9039 650.902 29.6623 651.293 29.4869C651.687 29.3114 652.133 29.2237 652.632 29.2237C653.333 29.2237 653.884 29.3776 654.284 29.6854C654.687 29.9931 654.974 30.3994 655.143 30.9041ZM657.706 36.4808C657.479 36.4808 657.283 36.3993 657.12 36.2362C656.957 36.073 656.875 35.8776 656.875 35.6499C656.875 35.4221 656.957 35.2267 657.12 35.0636C657.283 34.9005 657.479 34.8189 657.706 34.8189C657.934 34.8189 658.129 34.9005 658.293 35.0636C658.456 35.2267 658.537 35.4221 658.537 35.6499C658.537 35.8007 658.499 35.9392 658.422 36.0653C658.348 36.1915 658.248 36.2931 658.122 36.37C657.999 36.4439 657.86 36.4808 657.706 36.4808ZM661.286 36.4808C661.059 36.4808 660.863 36.3993 660.7 36.2362C660.537 36.073 660.455 35.8776 660.455 35.6499C660.455 35.4221 660.537 35.2267 660.7 35.0636C660.863 34.9005 661.059 34.8189 661.286 34.8189C661.514 34.8189 661.709 34.9005 661.873 35.0636C662.036 35.2267 662.117 35.4221 662.117 35.6499C662.117 35.8007 662.079 35.9392 662.002 36.0653C661.928 36.1915 661.828 36.2931 661.702 36.37C661.579 36.4439 661.44 36.4808 661.286 36.4808ZM664.866 36.4808C664.639 36.4808 664.443 36.3993 664.28 36.2362C664.117 36.073 664.035 35.8776 664.035 35.6499C664.035 35.4221 664.117 35.2267 664.28 35.0636C664.443 34.9005 664.639 34.8189 664.866 34.8189C665.094 34.8189 665.29 34.9005 665.453 35.0636C665.616 35.2267 665.697 35.4221 665.697 35.6499C665.697 35.8007 665.659 35.9392 665.582 36.0653C665.508 36.1915 665.408 36.2931 665.282 36.37C665.159 36.4439 665.02 36.4808 664.866 36.4808Z" fill="rgb(204,204,204)" fill-rule="nonzero" />
			</g>
			<g id="Container" customFrame="url(#clipPath_13)">
				<rect id="Container" width="33.281250" height="36.738281" x="1010.634766" y="13.310547" />
				<g id="Container" customFrame="url(#clipPath_14)">
					<rect id="Container" width="25.283203" height="20.234375" x="1010.634766" y="21.562500" fill="rgb(255,255,255)" />
					<rect id="Container" width="25.283203" height="20.234375" x="1010.634766" y="21.562500" stroke="rgb(229,231,235)" stroke-width="0" />
					<path id="K" d="M1018.99 34.1722C1018.59 34.1722 1018.28 34.056 1018.04 33.8237C1017.81 33.5914 1017.69 33.2797 1017.69 32.8887C1017.69 32.475 1017.81 32.1549 1018.05 31.9282C1018.3 31.6959 1018.67 31.5797 1019.15 31.5797L1019.65 31.5797L1019.65 30.6447L1019.15 30.6447C1018.67 30.6447 1018.3 30.5314 1018.05 30.3047C1017.81 30.0724 1017.69 29.7494 1017.69 29.3357C1017.69 28.9447 1017.81 28.633 1018.04 28.4007C1018.28 28.1684 1018.59 28.0522 1018.99 28.0522C1019.31 28.0522 1019.56 28.1117 1019.74 28.2307C1019.92 28.3497 1020.06 28.5084 1020.13 28.7067C1020.21 28.905 1020.25 29.1232 1020.25 29.3612L1020.25 30.0667L1021.18 30.0667L1021.18 29.3612C1021.18 29.1232 1021.22 28.905 1021.29 28.7067C1021.37 28.5084 1021.5 28.3497 1021.68 28.2307C1021.87 28.1117 1022.12 28.0522 1022.44 28.0522C1022.84 28.0522 1023.15 28.1684 1023.38 28.4007C1023.62 28.633 1023.74 28.9447 1023.74 29.3357C1023.74 29.7494 1023.62 30.0724 1023.38 30.3047C1023.13 30.5314 1022.77 30.6447 1022.28 30.6447L1021.78 30.6447L1021.78 31.5797L1022.28 31.5797C1022.77 31.5797 1023.13 31.6959 1023.38 31.9282C1023.62 32.1549 1023.74 32.475 1023.74 32.8887C1023.74 33.2797 1023.62 33.5914 1023.38 33.8237C1023.15 34.056 1022.84 34.1722 1022.44 34.1722C1022.12 34.1722 1021.87 34.1127 1021.68 33.9937C1021.5 33.8747 1021.37 33.716 1021.29 33.5177C1021.22 33.3194 1021.18 33.1012 1021.18 32.8632L1021.18 32.1577L1020.25 32.1577L1020.25 32.8632C1020.25 33.1012 1020.21 33.3194 1020.13 33.5177C1020.06 33.716 1019.92 33.8747 1019.74 33.9937C1019.56 34.1127 1019.31 34.1722 1018.99 34.1722ZM1021.78 29.3442L1021.78 30.0667L1022.28 30.0667C1022.58 30.0667 1022.8 30.0072 1022.93 29.8882C1023.07 29.7635 1023.14 29.5794 1023.14 29.3357C1023.14 29.0864 1023.07 28.9079 1022.93 28.8002C1022.8 28.6925 1022.64 28.6387 1022.44 28.6387C1022.22 28.6387 1022.05 28.7039 1021.94 28.8342C1021.83 28.9589 1021.78 29.1289 1021.78 29.3442ZM1019.15 30.0667L1019.65 30.0667L1019.65 29.3442C1019.65 29.1289 1019.6 28.9589 1019.48 28.8342C1019.38 28.7039 1019.21 28.6387 1018.99 28.6387C1018.79 28.6387 1018.62 28.6925 1018.49 28.8002C1018.36 28.9079 1018.29 29.0864 1018.29 29.3357C1018.29 29.5794 1018.36 29.7635 1018.5 29.8882C1018.63 30.0072 1018.85 30.0667 1019.15 30.0667ZM1020.25 31.5797L1021.18 31.5797L1021.18 30.6447L1020.25 30.6447L1020.25 31.5797ZM1018.99 33.5857C1019.21 33.5857 1019.38 33.5234 1019.48 33.3987C1019.6 33.2684 1019.65 33.0955 1019.65 32.8802L1019.65 32.1577L1019.15 32.1577C1018.85 32.1577 1018.63 32.22 1018.5 32.3447C1018.36 32.4637 1018.29 32.645 1018.29 32.8887C1018.29 33.138 1018.36 33.3165 1018.49 33.4242C1018.62 33.5319 1018.79 33.5857 1018.99 33.5857ZM1021.78 32.8802C1021.78 33.0955 1021.83 33.2684 1021.94 33.3987C1022.05 33.5234 1022.22 33.5857 1022.44 33.5857C1022.64 33.5857 1022.8 33.5319 1022.93 33.4242C1023.07 33.3165 1023.14 33.138 1023.14 32.8887C1023.14 32.645 1023.07 32.4637 1022.93 32.3447C1022.8 32.22 1022.58 32.1577 1022.28 32.1577L1021.78 32.1577L1021.78 32.8802ZM1028.17 28.9107C1027.9 29.3244 1027.59 29.7352 1027.26 30.1432C1026.93 30.5512 1026.57 30.9592 1026.18 31.3672C1026.37 31.5202 1026.56 31.6987 1026.76 31.9027C1026.97 32.1067 1027.17 32.3305 1027.36 32.5742C1027.56 32.8122 1027.74 33.0672 1027.91 33.3392C1028.09 33.6112 1028.23 33.8889 1028.35 34.1722L1027.56 34.1722C1027.42 33.9115 1027.27 33.6565 1027.1 33.4072C1026.94 33.1579 1026.76 32.9255 1026.58 32.7102C1026.39 32.4949 1026.2 32.2994 1026.01 32.1237C1025.81 31.9424 1025.62 31.7865 1025.42 31.6562L1025.42 34.1722L1024.72 34.1722L1024.72 28.9107L1025.42 28.9107L1025.42 31.2567C1025.79 30.877 1026.14 30.4804 1026.47 30.0667C1026.81 29.653 1027.11 29.2677 1027.37 28.9107L1028.17 28.9107Z" fill="rgb(156,163,175)" fill-rule="nonzero" />
				</g>
			</g>
		</g>
	</g>
	<g id="Container" customFrame="url(#clipPath_15)">
		<rect id="Container" width="400.410156" height="39.980469" x="1183.583984" y="11.689453" />
		<g id="Button" customFrame="url(#clipPath_16)">
			<rect id="Button" width="105.166016" height="31.484375" x="1183.583984" y="15.937500" fill="rgb(0,0,0)" />
			<g id="Frame" clip-path="url(#clipPath_17)" customFrame="url(#clipPath_17)">
				<rect id="Frame" width="13.994141" height="13.994141" x="1195.576172" y="24.677734" fill="rgb(255,255,255)" fill-opacity="0" />
				<path id="Vector" d="M1198.49 31.6748L1206.65 31.6748" stroke="rgb(255,255,255)" stroke-linecap="round" stroke-linejoin="round" stroke-width="2" />
				<path id="Vector" d="M0 0L8.16325 0" stroke="rgb(255,255,255)" stroke-linecap="round" stroke-linejoin="round" stroke-width="2" transform="matrix(0,1,-1,0,1202.57,27.5932)" />
			</g>
			<g id="Span" customFrame="url(#clipPath_18)">
				<rect id="Span" width="59.189453" height="19.492188" x="1217.568359" y="21.933594" />
				<path id="Add Lead" d="M1223.56 35.6393L1222.27 35.6393L1225.17 27.6029L1226.57 27.6029L1229.46 35.6393L1228.17 35.6393L1225.9 29.0626L1225.84 29.0626L1223.56 35.6393ZM1223.78 32.4922L1227.95 32.4922L1227.95 33.5125L1223.78 33.5125L1223.78 32.4922ZM1232.68 35.757C1232.2 35.757 1231.76 35.6327 1231.38 35.3842C1231 35.1331 1230.7 34.776 1230.49 34.313C1230.27 33.8473 1230.16 33.2888 1230.16 32.6374C1230.16 31.986 1230.27 31.4288 1230.49 30.9658C1230.71 30.5028 1231.01 30.1483 1231.39 29.9024C1231.77 29.6565 1232.21 29.5335 1232.69 29.5335C1233.07 29.5335 1233.37 29.5963 1233.59 29.7219C1233.82 29.8448 1234 29.9887 1234.13 30.1535C1234.26 30.3183 1234.36 30.4635 1234.43 30.5891L1234.5 30.5891L1234.5 27.6029L1235.67 27.6029L1235.67 35.6393L1234.52 35.6393L1234.52 34.7014L1234.43 34.7014C1234.36 34.8296 1234.25 34.9761 1234.12 35.1409C1233.99 35.3057 1233.81 35.4496 1233.58 35.5726C1233.35 35.6955 1233.05 35.757 1232.68 35.757ZM1232.94 34.7564C1233.28 34.7564 1233.57 34.6674 1233.8 34.4895C1234.03 34.309 1234.21 34.0592 1234.33 33.7401C1234.45 33.4209 1234.52 33.0494 1234.52 32.6256C1234.52 32.2071 1234.46 31.8408 1234.34 31.5269C1234.22 31.213 1234.04 30.9684 1233.81 30.7931C1233.57 30.6179 1233.29 30.5302 1232.94 30.5302C1232.59 30.5302 1232.3 30.6218 1232.06 30.8049C1231.82 30.988 1231.65 31.2378 1231.53 31.5544C1231.41 31.8709 1231.35 32.228 1231.35 32.6256C1231.35 33.0285 1231.41 33.3908 1231.53 33.7126C1231.65 34.0344 1231.83 34.2894 1232.06 34.4778C1232.3 34.6635 1232.59 34.7564 1232.94 34.7564ZM1239.6 35.757C1239.11 35.757 1238.68 35.6327 1238.3 35.3842C1237.92 35.1331 1237.62 34.776 1237.4 34.313C1237.19 33.8473 1237.08 33.2888 1237.08 32.6374C1237.08 31.986 1237.19 31.4288 1237.41 30.9658C1237.63 30.5028 1237.93 30.1483 1238.31 29.9024C1238.69 29.6565 1239.12 29.5335 1239.61 29.5335C1239.98 29.5335 1240.28 29.5963 1240.51 29.7219C1240.74 29.8448 1240.92 29.9887 1241.04 30.1535C1241.17 30.3183 1241.27 30.4635 1241.34 30.5891L1241.41 30.5891L1241.41 27.6029L1242.59 27.6029L1242.59 35.6393L1241.44 35.6393L1241.44 34.7014L1241.34 34.7014C1241.27 34.8296 1241.17 34.9761 1241.04 35.1409C1240.91 35.3057 1240.73 35.4496 1240.5 35.5726C1240.27 35.6955 1239.97 35.757 1239.6 35.757ZM1239.86 34.7564C1240.2 34.7564 1240.48 34.6674 1240.71 34.4895C1240.95 34.309 1241.13 34.0592 1241.25 33.7401C1241.37 33.4209 1241.43 33.0494 1241.43 32.6256C1241.43 32.2071 1241.37 31.8408 1241.25 31.5269C1241.13 31.213 1240.96 30.9684 1240.72 30.7931C1240.49 30.6179 1240.2 30.5302 1239.86 30.5302C1239.51 30.5302 1239.21 30.6218 1238.98 30.8049C1238.74 30.988 1238.56 31.2378 1238.44 31.5544C1238.33 31.8709 1238.27 32.228 1238.27 32.6256C1238.27 33.0285 1238.33 33.3908 1238.45 33.7126C1238.57 34.0344 1238.75 34.2894 1238.98 34.4778C1239.22 34.6635 1239.51 34.7564 1239.86 34.7564ZM1247.28 35.6393L1247.28 27.6029L1248.49 27.6029L1248.49 34.5955L1252.13 34.5955L1252.13 35.6393L1247.28 35.6393ZM1256.02 35.7609C1255.43 35.7609 1254.92 35.634 1254.49 35.3803C1254.06 35.1239 1253.73 34.7642 1253.5 34.3012C1253.27 33.8355 1253.15 33.2901 1253.15 32.6649C1253.15 32.0475 1253.27 31.5034 1253.5 31.0325C1253.73 30.5616 1254.05 30.1941 1254.47 29.9298C1254.89 29.6656 1255.38 29.5335 1255.94 29.5335C1256.28 29.5335 1256.61 29.5898 1256.93 29.7023C1257.25 29.8147 1257.53 29.9913 1257.79 30.232C1258.04 30.4727 1258.24 30.7853 1258.39 31.1698C1258.53 31.5518 1258.61 32.0161 1258.61 32.5629L1258.61 32.9788L1253.82 32.9788L1253.82 32.0998L1257.46 32.0998C1257.46 31.7911 1257.39 31.5178 1257.27 31.2797C1257.14 31.039 1256.97 30.8494 1256.74 30.7107C1256.51 30.5721 1256.25 30.5028 1255.95 30.5028C1255.62 30.5028 1255.33 30.5838 1255.08 30.746C1254.84 30.9056 1254.65 31.1149 1254.52 31.3739C1254.39 31.6302 1254.32 31.9089 1254.32 32.2097L1254.32 32.8964C1254.32 33.2993 1254.39 33.642 1254.53 33.9245C1254.68 34.207 1254.88 34.4228 1255.13 34.5719C1255.39 34.7184 1255.69 34.7917 1256.03 34.7917C1256.25 34.7917 1256.46 34.7603 1256.64 34.6975C1256.82 34.6321 1256.98 34.5353 1257.12 34.4071C1257.25 34.279 1257.35 34.1207 1257.42 33.9323L1258.53 34.1325C1258.44 34.4595 1258.28 34.7459 1258.05 34.9918C1257.83 35.2351 1257.54 35.4248 1257.19 35.5608C1256.85 35.6942 1256.46 35.7609 1256.02 35.7609ZM1261.66 35.7727C1261.28 35.7727 1260.94 35.7021 1260.63 35.5608C1260.32 35.4169 1260.07 35.2089 1259.89 34.9369C1259.71 34.6648 1259.63 34.3313 1259.63 33.9363C1259.63 33.5962 1259.69 33.3163 1259.82 33.0965C1259.95 32.8768 1260.13 32.7028 1260.35 32.5746C1260.57 32.4464 1260.82 32.3497 1261.1 32.2842C1261.37 32.2188 1261.65 32.1691 1261.94 32.1351C1262.3 32.0933 1262.59 32.0593 1262.82 32.0331C1263.04 32.0043 1263.2 31.9586 1263.31 31.8958C1263.41 31.833 1263.46 31.731 1263.46 31.5897L1263.46 31.5622C1263.46 31.2195 1263.36 30.954 1263.17 30.7657C1262.98 30.5773 1262.69 30.4831 1262.31 30.4831C1261.92 30.4831 1261.61 30.5708 1261.38 30.746C1261.15 30.9187 1261 31.111 1260.91 31.3229L1259.81 31.0717C1259.94 30.7055 1260.13 30.4099 1260.38 30.1849C1260.64 29.9573 1260.93 29.7925 1261.26 29.6905C1261.59 29.5858 1261.93 29.5335 1262.3 29.5335C1262.54 29.5335 1262.79 29.5623 1263.06 29.6199C1263.34 29.6748 1263.59 29.7768 1263.82 29.9259C1264.06 30.075 1264.26 30.2882 1264.41 30.5655C1264.56 30.8402 1264.64 31.1973 1264.64 31.6368L1264.64 35.6393L1263.49 35.6393L1263.49 34.8152L1263.44 34.8152C1263.37 34.967 1263.25 35.1161 1263.1 35.2626C1262.95 35.4091 1262.76 35.5307 1262.52 35.6275C1262.28 35.7243 1261.99 35.7727 1261.66 35.7727ZM1261.92 34.8309C1262.24 34.8309 1262.52 34.7668 1262.75 34.6387C1262.98 34.5105 1263.16 34.343 1263.28 34.1364C1263.4 33.9271 1263.46 33.7034 1263.46 33.4654L1263.46 32.6884C1263.42 32.7303 1263.34 32.7695 1263.22 32.8061C1263.1 32.8401 1262.97 32.8702 1262.82 32.8964C1262.66 32.9199 1262.52 32.9422 1262.37 32.9631C1262.23 32.9814 1262.11 32.9971 1262.01 33.0102C1261.78 33.039 1261.58 33.0874 1261.39 33.1554C1261.2 33.2234 1261.05 33.3215 1260.94 33.4497C1260.83 33.5752 1260.78 33.7427 1260.78 33.952C1260.78 34.2423 1260.88 34.4621 1261.1 34.6112C1261.31 34.7577 1261.59 34.8309 1261.92 34.8309ZM1268.46 35.757C1267.97 35.757 1267.53 35.6327 1267.15 35.3842C1266.77 35.1331 1266.48 34.776 1266.26 34.313C1266.04 33.8473 1265.94 33.2888 1265.94 32.6374C1265.94 31.986 1266.05 31.4288 1266.26 30.9658C1266.48 30.5028 1266.78 30.1483 1267.16 29.9024C1267.55 29.6565 1267.98 29.5335 1268.46 29.5335C1268.84 29.5335 1269.14 29.5963 1269.37 29.7219C1269.6 29.8448 1269.77 29.9887 1269.9 30.1535C1270.03 30.3183 1270.13 30.4635 1270.2 30.5891L1270.27 30.5891L1270.27 27.6029L1271.44 27.6029L1271.44 35.6393L1270.3 35.6393L1270.3 34.7014L1270.2 34.7014C1270.13 34.8296 1270.03 34.9761 1269.89 35.1409C1269.76 35.3057 1269.58 35.4496 1269.35 35.5726C1269.12 35.6955 1268.82 35.757 1268.46 35.757ZM1268.71 34.7564C1269.05 34.7564 1269.34 34.6674 1269.57 34.4895C1269.81 34.309 1269.98 34.0592 1270.1 33.7401C1270.23 33.4209 1270.29 33.0494 1270.29 32.6256C1270.29 32.2071 1270.23 31.8408 1270.11 31.5269C1269.99 31.213 1269.81 30.9684 1269.58 30.7931C1269.35 30.6179 1269.06 30.5302 1268.71 30.5302C1268.36 30.5302 1268.07 30.6218 1267.83 30.8049C1267.6 30.988 1267.42 31.2378 1267.3 31.5544C1267.18 31.8709 1267.12 32.228 1267.12 32.6256C1267.12 33.0285 1267.18 33.3908 1267.3 33.7126C1267.42 34.0344 1267.6 34.2894 1267.84 34.4778C1268.07 34.6635 1268.37 34.7564 1268.71 34.7564Z" fill="rgb(255,255,255)" fill-rule="nonzero" />
			</g>
		</g>
		<g id="Container" customFrame="url(#clipPath_19)">
			<rect id="Container" width="0.996094" height="23.994141" x="1312.744141" y="19.677734" fill="rgb(238,238,238)" />
		</g>
		<g id="Button" customFrame="url(#clipPath_20)">
			<rect id="Button" width="33.994141" height="33.994141" x="1329.736328" y="14.677734" fill="rgb(0,0,0)" fill-opacity="0" />
			<g id="Frame" clip-path="url(#clipPath_21)" customFrame="url(#clipPath_21)">
				<rect id="Frame" width="17.998047" height="17.998047" x="1337.734375" y="22.675781" fill="rgb(255,255,255)" fill-opacity="0" />
				<path id="Vector" d="M1345.43 38.4241C1345.57 38.6521 1345.76 38.8414 1345.98 38.9731C1346.21 39.1047 1346.47 39.174 1346.73 39.174C1347 39.174 1347.26 39.1047 1347.48 38.9731C1347.71 38.8414 1347.9 38.6521 1348.03 38.4241" fill-rule="nonzero" stroke="rgb(107,114,128)" stroke-linecap="round" stroke-linejoin="round" stroke-width="1" />
				<path id="Vector" d="M1339.99 34.5535C1339.97 34.697 1339.99 34.8442 1340.05 34.9772C1340.11 35.1102 1340.2 35.2233 1340.32 35.3027C1340.45 35.3821 1340.59 35.4245 1340.73 35.4246L1352.73 35.4246C1352.88 35.4246 1353.02 35.3824 1353.14 35.3032C1353.26 35.2239 1353.36 35.1109 1353.42 34.978C1353.48 34.8451 1353.5 34.698 1353.47 34.5545C1353.45 34.411 1353.39 34.2774 1353.29 34.1699C1352.29 33.1418 1351.23 32.0492 1351.23 28.6753C1351.23 27.4819 1350.76 26.3375 1349.91 25.4937C1349.07 24.6498 1347.93 24.1758 1346.73 24.1758C1345.54 24.1758 1344.4 24.6498 1343.55 25.4937C1342.71 26.3375 1342.23 27.4819 1342.23 28.6753C1342.23 32.0492 1341.18 33.1418 1340.18 34.1692C1340.08 34.2766 1340.02 34.4101 1339.99 34.5535Z" fill-rule="nonzero" stroke="rgb(107,114,128)" stroke-linecap="round" stroke-linejoin="round" stroke-width="1" />
			</g>
			<g id="Span" filter="url(#filter_0)" customFrame="url(#clipPath_22)">
				<rect id="Span" width="5.996094" height="5.996094" x="1349.736328" y="22.675781" rx="2.998047" fill="rgb(0,102,255)" />
			</g>
		</g>
		<g id="Button" customFrame="url(#clipPath_23)">
			<rect id="Button" width="33.994141" height="33.994141" x="1379.726562" y="14.677734" fill="rgb(0,0,0)" fill-opacity="0" />
			<g id="Frame" clip-path="url(#clipPath_24)" customFrame="url(#clipPath_24)">
				<rect id="Frame" width="17.998047" height="17.998047" x="1387.724609" y="22.675781" fill="rgb(255,255,255)" fill-opacity="0" />
				<path id="Vector" d="M1396.72 39.1742C1392.58 39.1742 1389.22 35.8167 1389.22 31.675C1389.22 27.5333 1392.58 24.1758 1396.72 24.1758C1400.87 24.1758 1404.22 27.5333 1404.22 31.675C1404.22 35.8167 1400.87 39.1742 1396.72 39.1742Z" stroke="rgb(107,114,128)" stroke-linecap="round" stroke-linejoin="round" stroke-width="1" />
				<path id="Vector" d="M1394.54 29.4252C1394.72 28.924 1395.07 28.5013 1395.52 28.2321C1395.98 27.9628 1396.52 27.8644 1397.04 27.9542C1397.57 28.0441 1398.04 28.3163 1398.39 28.7228C1398.73 29.1294 1398.91 29.6438 1398.91 30.1752C1398.91 31.6752 1396.66 32.4252 1396.66 32.4252" fill-rule="nonzero" stroke="rgb(107,114,128)" stroke-linecap="round" stroke-linejoin="round" stroke-width="1" />
				<path id="Vector" d="M1396.72 35.4244L1396.73 35.4244" stroke="rgb(107,114,128)" stroke-linecap="round" stroke-linejoin="round" stroke-width="1" />
			</g>
		</g>
		<g id="Container" customFrame="url(#clipPath_25)">
			<rect id="Container" width="0.996094" height="23.994141" x="1429.716797" y="19.677734" fill="rgb(238,238,238)" />
		</g>
		<g id="Button" customFrame="url(#clipPath_26)">
			<rect id="Button" width="137.285156" height="39.980469" x="1446.708984" y="11.689453" fill="rgb(0,0,0)" fill-opacity="0" />
			<g id="Container" customFrame="url(#clipPath_27)">
				<rect id="Container" width="31.992188" height="31.992188" x="1454.707031" y="15.683594" fill="rgb(243,244,246)" />
				<rect id="Container" width="31.992188" height="31.992188" x="1454.707031" y="15.683594" stroke="rgb(238,238,238)" stroke-width="0" />
				<path id="JD" d="M1468.14 28.1527L1469.16 28.1527L1469.16 32.9738C1469.16 33.4099 1469.07 33.7829 1468.9 34.0928C1468.73 34.4027 1468.49 34.6395 1468.18 34.8033C1467.87 34.9649 1467.51 35.0457 1467.09 35.0457C1466.71 35.0457 1466.36 34.976 1466.06 34.8365C1465.75 34.6971 1465.51 34.4945 1465.34 34.2289C1465.16 33.9611 1465.07 33.6357 1465.07 33.2527L1466.09 33.2527C1466.09 33.4409 1466.14 33.6036 1466.22 33.7408C1466.31 33.8781 1466.43 33.9854 1466.58 34.0629C1466.74 34.1382 1466.92 34.1758 1467.12 34.1758C1467.33 34.1758 1467.52 34.1304 1467.67 34.0396C1467.82 33.9467 1467.94 33.8105 1468.02 33.6312C1468.1 33.452 1468.14 33.2328 1468.14 32.9738L1468.14 28.1527ZM1472.85 34.9527L1470.65 34.9527L1470.65 28.1527L1472.92 28.1527C1473.59 28.1527 1474.16 28.2889 1474.64 28.5611C1475.12 28.8312 1475.48 29.2197 1475.74 29.7266C1475.99 30.2313 1476.12 30.8367 1476.12 31.5428C1476.12 32.2511 1475.99 32.8598 1475.73 33.3689C1475.48 33.8781 1475.11 34.2699 1474.62 34.5443C1474.13 34.8166 1473.54 34.9527 1472.85 34.9527ZM1471.68 34.0563L1472.8 34.0563C1473.31 34.0563 1473.74 33.9589 1474.09 33.7641C1474.43 33.5671 1474.69 33.2826 1474.86 32.9107C1475.03 32.5367 1475.11 32.0807 1475.11 31.5428C1475.11 31.0093 1475.03 30.5566 1474.86 30.1848C1474.69 29.8129 1474.44 29.5307 1474.1 29.3381C1473.77 29.1455 1473.35 29.0492 1472.86 29.0492L1471.68 29.0492L1471.68 34.0563Z" fill="rgb(0,0,0)" fill-rule="nonzero" />
			</g>
			<g id="Container" customFrame="url(#clipPath_28)">
				<rect id="Container" width="59.316406" height="27.988281" x="1498.691406" y="17.685547" />
				<g id="Container" customFrame="url(#clipPath_29)">
					<rect id="Container" width="59.316406" height="12.998047" x="1498.691406" y="17.685547" />
					<path id="John Doe" d="M1502.7 19.6049L1503.91 19.6049L1503.91 25.3025C1503.91 25.8179 1503.8 26.2587 1503.6 26.6249C1503.4 26.9912 1503.12 27.2711 1502.75 27.4646C1502.38 27.6556 1501.95 27.7511 1501.46 27.7511C1501.01 27.7511 1500.6 27.6687 1500.24 27.5039C1499.88 27.3391 1499.6 27.0997 1499.39 26.7858C1499.18 26.4693 1499.08 26.0847 1499.08 25.6321L1500.28 25.6321C1500.28 25.8545 1500.34 26.0468 1500.44 26.209C1500.54 26.3712 1500.68 26.498 1500.87 26.5896C1501.05 26.6785 1501.26 26.723 1501.49 26.723C1501.75 26.723 1501.97 26.6694 1502.14 26.5621C1502.33 26.4523 1502.46 26.2914 1502.56 26.0795C1502.65 25.8676 1502.7 25.6086 1502.7 25.3025L1502.7 19.6049ZM1508.12 27.7629C1507.55 27.7629 1507.06 27.6334 1506.64 27.3744C1506.22 27.1154 1505.89 26.7531 1505.66 26.2874C1505.42 25.8218 1505.31 25.2777 1505.31 24.6551C1505.31 24.0298 1505.42 23.4831 1505.66 23.0148C1505.89 22.5466 1506.22 22.1829 1506.64 21.924C1507.06 21.665 1507.55 21.5355 1508.12 21.5355C1508.68 21.5355 1509.17 21.665 1509.6 21.924C1510.02 22.1829 1510.34 22.5466 1510.58 23.0148C1510.81 23.4831 1510.93 24.0298 1510.93 24.6551C1510.93 25.2777 1510.81 25.8218 1510.58 26.2874C1510.34 26.7531 1510.02 27.1154 1509.6 27.3744C1509.17 27.6334 1508.68 27.7629 1508.12 27.7629ZM1508.12 26.7779C1508.49 26.7779 1508.79 26.6812 1509.03 26.4876C1509.27 26.294 1509.45 26.0363 1509.56 25.7145C1509.68 25.3928 1509.74 25.0383 1509.74 24.6511C1509.74 24.2666 1509.68 23.9134 1509.56 23.5917C1509.45 23.2673 1509.27 23.007 1509.03 22.8108C1508.79 22.6146 1508.49 22.5165 1508.12 22.5165C1507.75 22.5165 1507.44 22.6146 1507.2 22.8108C1506.96 23.007 1506.78 23.2673 1506.66 23.5917C1506.55 23.9134 1506.49 24.2666 1506.49 24.6511C1506.49 25.0383 1506.55 25.3928 1506.66 25.7145C1506.78 26.0363 1506.96 26.294 1507.2 26.4876C1507.44 26.6812 1507.75 26.7779 1508.12 26.7779ZM1513.41 24.0625L1513.41 27.6412L1512.24 27.6412L1512.24 19.6049L1513.39 19.6049L1513.39 22.595L1513.47 22.595C1513.61 22.2706 1513.82 22.0129 1514.11 21.8219C1514.41 21.631 1514.78 21.5355 1515.25 21.5355C1515.67 21.5355 1516.03 21.6205 1516.34 21.7905C1516.65 21.9606 1516.89 22.2143 1517.06 22.5518C1517.23 22.8866 1517.32 23.3052 1517.32 23.8075L1517.32 27.6412L1516.14 27.6412L1516.14 23.9487C1516.14 23.5066 1516.03 23.1639 1515.8 22.9207C1515.57 22.6747 1515.26 22.5518 1514.85 22.5518C1514.58 22.5518 1514.33 22.6107 1514.11 22.7284C1513.89 22.8461 1513.72 23.0187 1513.59 23.2463C1513.47 23.4713 1513.41 23.7434 1513.41 24.0625ZM1520.06 24.0625L1520.06 27.6412L1518.88 27.6412L1518.88 21.614L1520.01 21.614L1520.01 22.595L1520.08 22.595C1520.22 22.2758 1520.44 22.0194 1520.73 21.8259C1521.03 21.6323 1521.41 21.5355 1521.86 21.5355C1522.27 21.5355 1522.63 21.6218 1522.94 21.7945C1523.25 21.9645 1523.49 22.2183 1523.66 22.5557C1523.83 22.8932 1523.91 23.3104 1523.91 23.8075L1523.91 27.6412L1522.74 27.6412L1522.74 23.9487C1522.74 23.5119 1522.63 23.1705 1522.4 22.9246C1522.17 22.6761 1521.86 22.5518 1521.46 22.5518C1521.19 22.5518 1520.95 22.6107 1520.73 22.7284C1520.53 22.8461 1520.36 23.0187 1520.24 23.2463C1520.12 23.4713 1520.06 23.7434 1520.06 24.0625ZM1531.11 27.6412L1528.51 27.6412L1528.51 19.6049L1531.19 19.6049C1531.98 19.6049 1532.65 19.7657 1533.22 20.0875C1533.78 20.4067 1534.22 20.8658 1534.52 21.4648C1534.82 22.0613 1534.97 22.7768 1534.97 23.6113C1534.97 24.4484 1534.82 25.1678 1534.51 25.7695C1534.21 26.3712 1533.77 26.8342 1533.19 27.1586C1532.62 27.4803 1531.92 27.6412 1531.11 27.6412ZM1529.72 26.5817L1531.04 26.5817C1531.65 26.5817 1532.16 26.4666 1532.57 26.2364C1532.97 26.0036 1533.28 25.6675 1533.48 25.228C1533.68 24.7859 1533.78 24.247 1533.78 23.6113C1533.78 22.9808 1533.68 22.4458 1533.48 22.0064C1533.28 21.5669 1532.98 21.2333 1532.59 21.0057C1532.19 20.7781 1531.7 20.6643 1531.11 20.6643L1529.72 20.6643L1529.72 26.5817ZM1538.92 27.7629C1538.36 27.7629 1537.87 27.6334 1537.44 27.3744C1537.02 27.1154 1536.7 26.7531 1536.46 26.2874C1536.23 25.8218 1536.11 25.2777 1536.11 24.6551C1536.11 24.0298 1536.23 23.4831 1536.46 23.0148C1536.7 22.5466 1537.02 22.1829 1537.44 21.924C1537.87 21.665 1538.36 21.5355 1538.92 21.5355C1539.49 21.5355 1539.98 21.665 1540.4 21.924C1540.82 22.1829 1541.15 22.5466 1541.38 23.0148C1541.62 23.4831 1541.73 24.0298 1541.73 24.6551C1541.73 25.2777 1541.62 25.8218 1541.38 26.2874C1541.15 26.7531 1540.82 27.1154 1540.4 27.3744C1539.98 27.6334 1539.49 27.7629 1538.92 27.7629ZM1538.93 26.7779C1539.29 26.7779 1539.6 26.6812 1539.84 26.4876C1540.08 26.294 1540.26 26.0363 1540.37 25.7145C1540.49 25.3928 1540.55 25.0383 1540.55 24.6511C1540.55 24.2666 1540.49 23.9134 1540.37 23.5917C1540.26 23.2673 1540.08 23.007 1539.84 22.8108C1539.6 22.6146 1539.29 22.5165 1538.93 22.5165C1538.56 22.5165 1538.25 22.6146 1538.01 22.8108C1537.77 23.007 1537.59 23.2673 1537.47 23.5917C1537.36 23.9134 1537.3 24.2666 1537.3 24.6511C1537.3 25.0383 1537.36 25.3928 1537.47 25.7145C1537.59 26.0363 1537.77 26.294 1538.01 26.4876C1538.25 26.6812 1538.56 26.7779 1538.93 26.7779ZM1545.64 27.7629C1545.05 27.7629 1544.54 27.636 1544.11 27.3822C1543.68 27.1259 1543.35 26.7662 1543.12 26.3031C1542.89 25.8375 1542.77 25.2921 1542.77 24.6668C1542.77 24.0495 1542.89 23.5053 1543.12 23.0344C1543.35 22.5636 1543.68 22.196 1544.09 21.9318C1544.51 21.6676 1545 21.5355 1545.56 21.5355C1545.9 21.5355 1546.23 21.5917 1546.55 21.7042C1546.87 21.8167 1547.15 21.9933 1547.41 22.2339C1547.66 22.4746 1547.86 22.7872 1548.01 23.1718C1548.15 23.5537 1548.23 24.0181 1548.23 24.5648L1548.23 24.9808L1543.44 24.9808L1543.44 24.1018L1547.08 24.1018C1547.08 23.7931 1547.01 23.5197 1546.89 23.2817C1546.76 23.041 1546.59 22.8513 1546.36 22.7127C1546.13 22.574 1545.87 22.5047 1545.57 22.5047C1545.24 22.5047 1544.95 22.5858 1544.7 22.748C1544.46 22.9076 1544.27 23.1168 1544.14 23.3758C1544.01 23.6322 1543.94 23.9108 1543.94 24.2116L1543.94 24.8983C1543.94 25.3012 1544.01 25.6439 1544.15 25.9264C1544.3 26.209 1544.5 26.4248 1544.75 26.5739C1545.01 26.7204 1545.31 26.7936 1545.65 26.7936C1545.88 26.7936 1546.08 26.7623 1546.26 26.6995C1546.44 26.6341 1546.6 26.5373 1546.74 26.4091C1546.87 26.2809 1546.97 26.1226 1547.04 25.9343L1548.15 26.1344C1548.06 26.4614 1547.9 26.7479 1547.67 26.9938C1547.45 27.2371 1547.16 27.4267 1546.81 27.5627C1546.47 27.6962 1546.08 27.7629 1545.64 27.7629Z" fill="rgb(0,0,0)" fill-rule="nonzero" />
				</g>
				<g id="Container" customFrame="url(#clipPath_30)">
					<rect id="Container" width="59.316406" height="10.996094" x="1498.691406" y="34.677734" />
					<path id="Admin" d="M1499.79 43.3902L1498.93 43.3902L1501.43 36.5902L1502.28 36.5902L1504.77 43.3902L1503.91 43.3902L1501.88 37.666L1501.83 37.666L1499.79 43.3902ZM1500.11 40.734L1503.59 40.734L1503.59 41.4645L1500.11 41.4645L1500.11 40.734ZM1507.65 43.4965C1507.23 43.4965 1506.85 43.3891 1506.53 43.1744C1506.2 42.9575 1505.95 42.652 1505.76 42.258C1505.58 41.8618 1505.49 41.3936 1505.49 40.8535C1505.49 40.3178 1505.58 39.853 1505.76 39.459C1505.95 39.065 1506.2 38.7606 1506.53 38.5459C1506.86 38.3312 1507.24 38.2238 1507.67 38.2238C1508 38.2238 1508.26 38.2792 1508.45 38.3898C1508.65 38.4983 1508.8 38.6223 1508.9 38.7617C1509 38.899 1509.08 39.0118 1509.14 39.1004L1509.21 39.1004L1509.21 36.5902L1509.99 36.5902L1509.99 43.3902L1509.23 43.3902L1509.23 42.6066L1509.14 42.6066C1509.08 42.6996 1509 42.8169 1508.89 42.9586C1508.79 43.098 1508.64 43.2231 1508.44 43.3338C1508.24 43.4423 1507.98 43.4965 1507.65 43.4965ZM1507.76 42.7926C1508.07 42.7926 1508.34 42.7107 1508.56 42.5469C1508.77 42.3809 1508.94 42.1518 1509.05 41.8596C1509.16 41.5652 1509.22 41.2254 1509.22 40.8402C1509.22 40.4595 1509.16 40.1264 1509.05 39.8408C1508.94 39.5531 1508.78 39.3295 1508.56 39.1701C1508.35 39.0085 1508.08 38.9277 1507.76 38.9277C1507.43 38.9277 1507.15 39.013 1506.93 39.1834C1506.71 39.3516 1506.55 39.5807 1506.43 39.8707C1506.33 40.1585 1506.27 40.4816 1506.27 40.8402C1506.27 41.2033 1506.33 41.5331 1506.44 41.8297C1506.55 42.1241 1506.72 42.3587 1506.94 42.5336C1507.16 42.7062 1507.43 42.7926 1507.76 42.7926ZM1511.53 43.3902L1511.53 38.2902L1512.29 38.2902L1512.29 39.0871L1512.36 39.0871C1512.46 38.8148 1512.64 38.6035 1512.87 38.4529C1513.11 38.3002 1513.39 38.2238 1513.73 38.2238C1514.06 38.2238 1514.34 38.3002 1514.57 38.4529C1514.79 38.6035 1514.97 38.8148 1515.09 39.0871L1515.15 39.0871C1515.28 38.8237 1515.47 38.6145 1515.73 38.4596C1516 38.3024 1516.31 38.2238 1516.67 38.2238C1517.13 38.2238 1517.5 38.3666 1517.79 38.6521C1518.08 38.9355 1518.23 39.3771 1518.23 39.977L1518.23 43.3902L1517.44 43.3902L1517.44 39.977C1517.44 39.6007 1517.34 39.3317 1517.14 39.1701C1516.93 39.0085 1516.69 38.9277 1516.41 38.9277C1516.05 38.9277 1515.77 39.0362 1515.58 39.2531C1515.38 39.4678 1515.28 39.7401 1515.28 40.0699L1515.28 43.3902L1514.48 43.3902L1514.48 39.8973C1514.48 39.6073 1514.39 39.3738 1514.2 39.1967C1514.01 39.0174 1513.77 38.9277 1513.47 38.9277C1513.27 38.9277 1513.08 38.982 1512.9 39.0904C1512.73 39.1989 1512.59 39.3494 1512.48 39.542C1512.37 39.7324 1512.32 39.9526 1512.32 40.2027L1512.32 43.3902L1511.53 43.3902ZM1519.66 43.3902L1519.66 38.2902L1520.44 38.2902L1520.44 43.3902L1519.66 43.3902ZM1520.06 37.4402C1519.91 37.4402 1519.77 37.3882 1519.66 37.2842C1519.56 37.1801 1519.5 37.0551 1519.5 36.909C1519.5 36.7629 1519.56 36.6378 1519.66 36.5338C1519.77 36.4298 1519.91 36.3777 1520.06 36.3777C1520.21 36.3777 1520.34 36.4298 1520.45 36.5338C1520.56 36.6378 1520.62 36.7629 1520.62 36.909C1520.62 37.0551 1520.56 37.1801 1520.45 37.2842C1520.34 37.3882 1520.21 37.4402 1520.06 37.4402ZM1522.66 40.3223L1522.66 43.3902L1521.88 43.3902L1521.88 38.2902L1522.64 38.2902L1522.64 39.0871L1522.7 39.0871C1522.82 38.8281 1523 38.6201 1523.25 38.4629C1523.49 38.3035 1523.81 38.2238 1524.19 38.2238C1524.54 38.2238 1524.84 38.2947 1525.1 38.4363C1525.36 38.5758 1525.56 38.7883 1525.7 39.0738C1525.85 39.3572 1525.92 39.7158 1525.92 40.1496L1525.92 43.3902L1525.13 43.3902L1525.13 40.2027C1525.13 39.8021 1525.03 39.49 1524.82 39.2664C1524.61 39.0406 1524.33 38.9277 1523.96 38.9277C1523.71 38.9277 1523.49 38.982 1523.29 39.0904C1523.1 39.1989 1522.95 39.3572 1522.83 39.5652C1522.72 39.7733 1522.66 40.0257 1522.66 40.3223Z" fill="rgb(107,114,128)" fill-rule="nonzero" />
				</g>
			</g>
			<g id="Frame" clip-path="url(#clipPath_31)" customFrame="url(#clipPath_31)">
				<rect id="Frame" width="13.994141" height="13.994141" x="1570.000000" y="24.677734" fill="rgb(255,255,255)" fill-opacity="0" />
				<path id="Vector" d="M1573.5 29.9255L1577 33.4241L1580.5 29.9255" fill-rule="nonzero" stroke="rgb(156,163,175)" stroke-linecap="round" stroke-linejoin="round" stroke-width="1" />
			</g>
		</g>
	</g>
</svg>
